<?xml version="1.0" encoding="UTF-8"?>
<svg version="1.1" viewBox="0 0 2000 2000" width="1280" height="1280" xmlns="http://www.w3.org/2000/svg">
<path transform="translate(1030,606)" d="m0 0 10 1v3l4 2 1 5 3-4 2-3-7-1v-2h9l7 2 4 5-2 1 2 5-1 2 3 1v3l6-3 5-4 16-1 4 3 1 7 4 3 8-1 7-1 1 4 4 2 2 2-4 1 1 2h5l3-3 4-2 2-11h2v11l-2 6h8l1 5 6 3v2l9-5 2-3 8-1v3l-7 2 2 3 6 2 2 1 7 1 4 5 3 5 3 2 6 2v2l4 1v2l4-1v2h6l2 5-1 5 5 7v2l14 1 3-1 7 6 2 7-3 1v6l6 9h8l1-8v-3l3-1 5 7-3 2 5 5 3 2 1 11 1 5 10 2 2 1 1 3 6-1 1 3h3v3l5 1 1 4 3-1 2 2v6h3v5l-3 4-1 10-1 2 5 2 4 2 5 1v2l5 2 1 5-6 7-1 4-1 1v5l3 2 2 4h7l2-1h10l4 4 1 3 3 2v3l-7 1-1-5h-9l-3 1-1 4h-2l1 5 3 2v1l7 1-1 3h-2l4 9v13l4 8 2 5 5 1 1 3 3 1 1 4-2 7 1 9 4 1v6h-4l1 8v3l-6 2 1 2 3 1v-3l3 1 1 9 3 3v3l-3 1 1 5 2 4h-3l-1 8 2 2 6 1 3 3 3 6v5h-3l-2-1v5h2l1 4 2 1-1 3 5-1 3 4-1 4-2-1-1-3-4 1-2-1-1 5h-2v-2h-3l-3 5-2 3v8l-3 1v-8l1-7-1-1-3 6-2 1-3-3 3 7 4 6v3l5 1 5 2-1 19-1 2h-3l-1 2h-2l1 10 2 2-2 2h-4v-2l-3 1-1 5 3 1-7 8-7 2h-2v7l6 12 6 21 5 13 3 11 1 14 1 4v17l-1 2-1 29 4 1 7 3 2 2v6l-3 6-1 17v14h12l15 1 8-1h94l8 4 5 10v58l-1 7-2 31-1 16-1 22-1 5-1 19-1 2-1 32-1 8-3 46-1 23-1 3-1 25-1 6-1 28-1 7-1 18-2 18-1 18-2 19-3 11-8 9-13 6-10 2-16 2-32 3-39 1-14-1-9-3-1-2h-45l-25 1-13 1-2-6-1 4 2 4-1 1-9-1v-2h-38l-36 2-25 2-16 5-6 1-27 2-45 2-51 1h-30l-48 1-79-2h-24l-15-5-10-6-4-7-2-7-3-60-3-77-2-13h-3l-21-5-5-3-12-26-6-17-6-35-5-22-3-26-1-20v-19l3-12 11-13 7-5 4-13 1-5v-20l3-14 3-8 5-5h2l1-3 9-3h6l3 1 3-3 10-4 5-3 16-3h52l5-3 1-18-2-7-5-11-4-16-1-17 5-9v-14l-4-12-1-7-6-13-5-10-1-9-3-6v-2l-6 2-2-1v-2h-2l-2-5-2-1v-4h-3l-1 4-9 1-1 2-5-1 2 4-4-2-8-5-1-5-2-3 4-6v-11l-3-1-2-5-7 4-1 4-7-1-1 3-6-1 1-3-7 1v2l-5-2v-2l-4-1-5-8v-5l1-1h6l-6-7 1-4 2 2 6-6-6-2 5-5 2-3 1 4h7l2-6-12 1 1-3 9-3-1-2v-7l-5-1-4-1v-4h-2l-2 4-5 3h-3v-2l-3 1v2l5 4 5 3 1 3-6-1-12-4-1-7h-6l-1-5 1-3 9-5h2l-1-3-10-2-2-4h2l-4-8-2-5-1-8 4-4v-3l-3-1 2-10 4-5v-8l5-4 1-13-3-5h-4l-1 4 4 1h-2v4l-4 1v7l-5 5-1 2-3-1-1-8 6-3 1-9-8-1-1-3 5-4 5-3v-8l3-1v-9l-2-1 2-3v-3l12-12 4-2 2-8-5 3-3 4-4 2h-3v-2h3l1-4 4-2v-6l-1-1-1-8 4-1 2 5 1-5 3-3 3-4 1-4-6-1-2 5-4 1-1-3 5-9 2-2 5 1v2l7-4 3-6v-3l-2-1-1-9 1-5-2-2 1-7 6-10 4-12 7-1 5-5 2-1h9l4-12 2-2 2-5 3-2 2-6 11-7h2v-3l13-13 4-6 10-10 9-5 4-1-1-2-6-1 1-2 12-1 4-5 3-6 12-9-1-3 4-2 3-8 4 1 16-8 3-4 7-1 1-1 8-1 7-6 5-5 6-1 5-1h8l6-5 9-3 20-1 5-1 5 2 6 1 6-8 10-4 8-1zm31 16 1 2zm-173 36-6 6-1 8 10-4-1-5 1-5zm366 57 1 2zm-11 17 1 2zm6 1-1 3 4 3 1 7 6 2-1-9-3-6zm23 14m-1 11 1 5 2 6 6 1v-3h2l-1 3 5 3 1 2h3l1-4-7-8-9-4zm28 31m1 11v4h2v2h2l-1-5zm5 0-1 3 3-1zm-7 5 1 3 1-3zm-557 47-1 1v5h2v-6zm4 33m-13 12v4h2l-1-4zm-14 15m18 0-3 3 1 6 8-2 2-2v-4l-2-1zm-22 21-1 2h2zm9 46 1 4 5 5v-5zm6 9v7h4l-1-5zm574 6-2 6h8l-1-4zm5 0v2h3v-2zm-66 15-1 3 3 1v-4zm88 7m6 0-1 3-4 1 2 2 6-4v-2zm-22 12 1 3zm25 1v3l2 2 2-2v-3zm-27 2-1 2h2zm26 3-5 2v5l4 1 2-2 1-6zm-1 13-2 4 3 3h5l-2-6zm-23 2 1 4-4 1 3 10h6v-8l1-2-3-4zm15 2-2 1v3h3zm-578 7 2 2v-2zm576 0-4 2 1 7 4-1-1-5zm6 1-1 3h5v-3zm-30 2v5l4-2-1-3zm6 0m-515 22v3h2l1 2-1-5zm449 1-2 8-2 23 2 6 2 11h1l1-9v-31l-1-8zm-400 18 1 3zm1 3 2 3v-3zm79 20-2 10-1 2h5l2-5-1-6zm-42 5-4 3-9 2-10-1 1 10 3 1 1 5h3l1 5 5 10 4 6 7-1 12-3 2-3h3l2-3-4-3-1-4-5-3 1-4-2-3-3 1 1-7 1-4-5-4zm10 54v11l6 4 1 3h4l3-5 4-2v-4l-5-2-2-5z" fill="#E8E9EF"/>
<path transform="translate(1030,606)" d="m0 0 10 1v3l4 2 1 5 3-4 2-3-7-1v-2h9l7 2 4 5-2 1 2 5-1 2 3 1v3l6-3 5-4 16-1 4 3 1 7 4 3 8-1 7-1 1 4 4 2 2 2-4 1 1 2h5l3-3 4-2 2-11h2v11l-2 6h8l1 5 6 3v2l9-5 2-3 8-1v3l-7 2 2 3 6 2 2 1 7 1 4 5 3 5 3 2 6 2v2l4 1v2l4-1v2h6l2 5-1 5 5 7v2l14 1 3-1 7 6 2 7-3 1v6l6 9h8l1-8v-3l3-1 5 7-3 2 5 5 3 2 2 17v3l-1-1v2l11 1 6 3 4 4-1 2h-2l5 5v2l-4-1-1-3-5-2-10-1 3 5 2 3v4l3-1 3 2v-3h2v3l5 3 2 4 2 1 1-8 1-2h2l1 4h-2v4h2v-2h2l1 4-4 1v9l-3 6-2-1 1 7 4 1-2 1 2 3 2 1 1 3 8 3 2 3v6l3 4-1 2-5-4 2 5-1 2h2v2h2l1-2 3 3v4h2l2 10-1 4 5 1 3-1v3l5 2-2 1 1 4-1 3h-2l1-4h-2l-1 4h-2l1 4 2 1v2h-2v3l7 2 2 2-3 1h-2l1 3 2 2h3l-1-4h2l-1 7v4l3-1 3 3-2 6-1 2h3l1 7-2 7h2l1 3h-6l-2 11 1 1 1 5h3v-2l6-2 3 2v6l-4 7 2 2-1 2h-2l-1-5-3 1 2 6 4 1 1 9-1 3h-3v3l3-1 2-2 4 1h-2v2l5 2-1 11-3-1v-3l-2 1-1 8h-3l-2 2-2-1v11l-2 1-1 10 2 3h-6l-2-2-7 6v2h-3v2l5 1v4l9-2 8-5 7 2 3 5 1 8-3 1-2 7-2 5v9l-2-3-3-5-6-1v-2h3l2-6 6-8v-2h-6l-9 2-8 2-1 3h-2v5l4-2 2-2v-4l5 1-4 9h-2l-1 5-5-1v-2h-5l-2 7-5 7-3-1h2l2-4 1-6-1-2h2l-3-3-4 6-4-4-1 8v3h-3v-4l-5-2-3-1v-2l-4 3-3 1 4 3-1 3-3 1-2 6-1 5-4 4-2 5 5-1-1 3 2 2h-7v2l2 1-1 2 4 1-1 3h-5-3l-3-1 1-6 1-12h2l2-6 1-5-1-5-9-2-1 4-4 1-1 6-4 2v11l-2 1-2 5-3-2-2 6-1 2h-3v5 2l1 3h-2v2l3-1v7l-3 7h-2l-2 4-2 5-4 1v2l-6 2-1-6h8v-2l-7 1-3-3-1-6-3-4 2-1 1-4-6-8 1-5-11-4v2h3v2l-2 2v2h-3v-2h-2v-10l9-50 3-13v-14l-6-23-3-25-5-23-7-17-5-15-4-11-2-5-3-14-7-14-6-1-1-12v-9l-2-6v-6l-5-1-4-4-2-3-3-4v-4l-4-2-3-2 2-6h3l-1-4-1 3-1-4-2-4v-6-3l5 6-2-5-6-14 1-2 4 3 1-3-1-3-3-7-4-1-3 3h-8l-1-1-3 3-4 1 2-3-1-2h-17v-5l-9-2 1-2h2v-2l-9 1-6 5-3-1v3l-7-1-2 5-5 4-2-1v15l-2 3v10l-3 7-6 5-5 3h-2v3h-2l-1 7-3 4 5-2-5 5h-6l-1 8 3 8v5h-3l-4 2-3 4 1 4 5 10v3h2l3 6 1 4v15l-3 12-3 4v3h-8l-1-3-4-2-1-6 3-1v-8l-3-1-1-2h-3-2l1 4-7 1-4 2v5l-1-3h-3l-3 9-3 1 1 5-4-1-1 3-3 3v10l3 5h2l2 9 2-3 5 1-1 5-4-1-2 6h5l1 2 9-3 1-2h3v-2h2l1-2 2-1 4 2v5l1 5-4 5 1 10v6l6-1 17 2 5 5 5 2-3 1-6-1v-3l-2-1v4l-9-1 1 3 6 2 5 3 8 1-2 3-5 2 1 2h-3l-2 16-6-4-10-14-2-1 3 8 2 3v2h2l1 4h3l-1 4h3l2 4v3h2v3h2l1-2v3l5 2 8 2 2-2 4 2h6l1 3 2-2 2 1 8-4h3l-1 3-6 4-9 4-12 1-3 2v1l-9 1-1 2h-2l-2 7h2l2 4v8l12 4h15l13-4 8-6 19-19-3-1 2-9 3-8 4-10 3-9h3l2-6 3-2 2-6h3l2-11 2-7 1-9 4-10 2-8 4 5 8 15 5 16 4 10 3 17 1 5-3 8-2 6h-5v-4l3-3-1-7 2-6-2-4h-4l-1 4-4 4-2 10-2 9-4 5-1 2 2 1-9 8-4 6-2 5-4-2h-3l-1 4-4 6-4 4-5 8-5 9-3 2h-7l-16 8-9 11-5 6-3 7-7-7-4-12-8-14v-2h-2l-7-28-2-18-2-10-3-18-4-10-3-3-11-3 1 22v32l-1 10-2-4-1-10-1-48v-10l-1-14-4-9-3-2h-8v5 3l-1 1v8l1 7-1 5v12l-2 12-1 2v14l-1 7v8h-2v4h-2v14l-2 7h2v2h2v3l-2 1 1 1 1 10-1 7 1 3v7l-3-3h-3l-2-6-1-10h-1v3l-2 1v4l-2 7-2 4 1 3h-2l3 5-3 3-1 2 4-1 1-3 1 4-5 5h-2l-1 7-1 2 2 6v2l2 1h-2v2l6-3 3-1-1 3-2 1-1 4 4 2 1 4 2 2 2 7 5 8v3h2l2 8 4 4v4h-6l-1-2-7-8v-2h-2l-16-24-4-8-3-3-2-4-3-1-2-6-2 4h-2l-1 3v-8l-7-2v6l-4 7-5 2-3-1-1-1-5 4-5 2-2 1-2 4v-6l2-4h2v-3l4 1 3-1v-3l-3-2 2-4-5 1-3-3-6-2-2 1h-3v-3l-5-1v-2h-2v2h-2v3l2 1-1 4-3-4-2-5-1-7h2l2-4-3-3-1-2-5 2-1-5h-4l-1 2h-5l1-2-4-1-1 3-3-2-1-9-4 2-3-1-1 2-7-1h-2l2 1v6l-3 1v-3h-4l-1 2h-2l1-4-4 1-5-5-2-1v7l-1 1h-8v-2l-3 2-7-1-4-4v-2h9l1-2 5 2v-2l-5-1-2-5-5-1-1-4 3-2 3 1-3-5v-4h-2l-2-3-4 2-2-5-1 1-5-1v1 4h-6l3-2 2 1v-2h-4v-2h-5v-5l-1-1 1 9 4 3v2l3 1-1 2-6-2h-2l-1-2-3-1 1 3h-2v-2h-5l-2-4 3-1-3-7-5-5h2v-6l4-2-1-2-4-4 2-1 9-1 2-6-12 1 1-3 9-3-1-2v-7l-5-1-4-1v-4h-2l-2 4-5 3h-3v-2l-3 1v2l5 4 5 3 1 3-6-1-12-4-1-7h-6l-1-5 1-3 9-5h2l-1-3-10-2-2-4h2l-4-8-2-5-1-8 4-4v-3l-3-1 2-10 4-5v-8l5-4 1-13-3-5h-4l-1 4 4 1h-2v4l-4 1v7l-5 5-1 2-3-1-1-8 6-3 1-9-8-1-1-3 5-4 5-3v-8l3-1v-9l-2-1 2-3v-3l12-12 4-2 2-8-5 3-3 4-4 2h-3v-2h3l1-4 4-2v-6l-1-1-1-8 4-1 2 5 1-5 3-3 3-4 1-4-6-1-2 5-4 1-1-3 5-9 2-2 5 1v2l7-4 3-6v-3l-2-1-1-9 1-5-2-2 1-7 6-10 4-12 7-1 5-5 2-1h9l4-12 2-2 2-5 3-2 2-6 11-7h2v-3l13-13 4-6 10-10 9-5 4-1-1-2-6-1 1-2 12-1 4-5 3-6 12-9-1-3 4-2 3-8 4 1 16-8 3-4 7-1 1-1 8-1 7-6 5-5 6-1 5-1h8l6-5 9-3 20-1 5-1 5 2 6 1 6-8 10-4 8-1zm31 16 1 2zm-173 36-6 6-1 8 10-4-1-5 1-5zm366 57 1 2zm-11 17 1 2zm6 1-1 3 4 3 1 7 6 2-1-9-3-6zm-508 119-1 1v5h2v-6zm4 33m-13 12v4h2l-1-4zm-14 15m18 0-3 3 1 6 8-2 2-2v-4l-2-1zm-22 21-1 2h2zm9 46 1 4 5 5v-5zm6 9v7h4l-1-5zm574 6-2 6h8l-1-4zm5 0v2h3v-2zm-66 15-1 3 3 1v-4zm72 19 1 3zm-2 3-1 2h2z" fill="#161514"/>
<path transform="translate(1266,739)" d="m0 0 1 3 10 2 2 1 1 3 6-1 1 3h3v3l5 1 1 4 3-1 2 2v6h3v5l-3 4-1 10-1 2 5 2 4 2 5 1v2l5 2 1 5-6 7-1 4-1 1v5l3 2 2 4h7l2-1h10l4 4 1 3 3 2v3l-7 1-1-5h-9l-3 1-1 4h-2l1 5 3 2v1l7 1-1 3h-2l4 9v13l4 8 2 5 5 1 1 3 3 1 1 4-2 7 1 9 4 1v6h-4l1 8v3l-6 2 1 2 3 1v-3l3 1 1 9 3 3v3l-3 1 1 5 2 4h-3l-1 8 2 2 6 1 3 3 3 6v5h-3l-2-1v5h2l1 4 2 1-1 3 5-1 3 4-1 4-2-1-1-3-4 1-2-1-1 5h-2v-2h-3l-3 5-2 3v8l-3 1v-8l1-7-1-1-3 6-2 1-3-3 3 7 4 6v3l5 1 5 2-1 19-1 2h-3l-1 2h-2l1 10 2 2-2 2h-4v-2l-3 1-1 5 3 1-7 8-7 2-4-1-2-1v2l-8 6-1 2-5 1-5-2-1 7 4-1-2 4h-2l-1 4-2 1-3 8v6h-2v-2h-2l-1 4-2 7-6 3-9 5-4 3-7 2 4 6h3l-1-4 11-8h4l-1 6-2 6-4 7-5 4-6-1-3-3-7 1-3 2-2 5-8 8-3 5-3 4-4 6h-2l-2 4-3 4-2 5 1 3h2l3 5 1 5v15l-5 18-2 11-3 3-7 1h-21l-8-1-24-1-11-6 2 14v3l-55 1-16-1 3-1-2-6 1-2h-2l-2-8v-3-3l-5 6-8 2h-9v-5l1-4-3-2 2-7h2l-1-8 2-6h-2v2l-2 1-6 15-5 12h-2v6l-5 5-3 5-1 2-13 1-1-1-12 1h-50l-4-1-4-9-1-10 2-2 1-6 10-9 3-5-5-21-1-4-2-4-2-5h-1v-5l-5-2-1-5-5-2 1-3-9 2 3 3-3 1-8-3h-3l-1-5 1-1-7 2-1-4-7-1-4-2h-6l-3-2v-2l-5-2v-4l-1-4h-2l-1 2-1-1 1-7v-4l-3-3-5 1-3 2-9 2-11-1-2 10 1 5h-2l1 3h-2l-2-2-2-7h-4l-3-8-7-14-1-9-3-6v-2l-6 2-2-1v-2h-2l-2-5-2-1v-4h-3l-1 4-9 1-1 2-5-1 2 4-4-2-8-5-1-5-2-3 4-6v-11l-3-1-2-5-7 4-1 4-7-1-1 3-6-1 1-3-7 1v2l-5-2v-2l-4-1-5-8v-5l1-1h6l-6-7 1-4 2 2 6-6-6-2 5-5 2-3 1 5-2 2 4 2-1 4-3 2-2 6h2v3l3 1 2 4v3l-2 1 1 3 5 1 1-1 4 1v2l4-1 4 1-2-1v-2l-4-2-2-7 1-4 2 2-1 5h5v2h4v2h-3l4 1-2-6 2-1v2l5 1 1-4 2 8 5-3 1 4 3-1 1 7 1 3-3 1h-2v4l5-1 2 3v4l5 1v2l-5-1-7 2-3-1 4 5 7 1 3-1v2l8-1 1-7h4l3 5h4l-1 4h2l1-3 5 1-1 3 2-1 1-6-3-1 2-2 1 1 7 1 5-1 3-1 2 9 2 1 1-2h5l-1 2 4 1 1-3h5v5h4l1-2h2l1 4 2 2-4 5 2 9 3 5 1-3-3-1v-5l1 2h2v-2h2v2l5 1 2 3 2-2 5 1 5 2v3l5-1-1 4 3 2-1 4-5 1-2-2v3h-2l-1 5 10-4 3-3h3l1 2 5-1 2-5 2-8 5 1 2 1 1 5h2l1-5 3 2v5l4 1 4 6 4 7 6 10 7 10 3 4v2h2l6 8 3 1 1 2 4 1-2-6-3-2-1-8h-2l-10-20-2-5-2-1 1-5 3-3-6 4h-3l-1-7-2-5 3-8h2l3-6-4 1 1-5 2-1-2-4v-3l2-4 2-7v-4l3-1-1-4 2-1 3 15 1 2 3 1 1 2-1-10 1-9v-7l-2-1 3-1v-3h-2v-2h-2l1-13 1-8h2l1-9v-8l1-2v-14l2-9 1-7v-10l1-10-1-2v-8l2-3-1-1v-5l1-1h8l5 5 3 7 1 14v23l1 35 1 10 1-6v-40l-1-12 1-2 8 1 5 3 5 8 3 14 1 11 3 14 2 15 5 21v3h2l9 16 4 12 5 6 2-4 4-6 9-10 5-5 14-7h7l7-9 2-4 6-9h2l2-5 3-5 5-1 2 1 3-6 6-7 5-4-1-3 4-5 2-9 2-10 3-4h2l1-4 5-1 2 6-2 5 1 7-2 3h-2v4h5l3-13 1-2-3-14-2-10-6-15-3-10-9-16-4 12-2 4-1 10-2 6-3 11h-3l-2 7-3 1-2 6h-3v5l-4 8-2 6-3 8-2 9 3-1-2 4-21 21-10 5-8 2h-15l-12-4-1-4-1-9h-2l1-5 1-2h2l1-3 9-3 18-3 6-3 6-4 1-2-12 5-1-1-2 2-1-4-6 1-4-2-3 3v-2l-7-1-6-4h-2v-3h-2l-2-4v-3h-3l1-4h-3l-1-4h-2l-4-7-1-6 3 1 8 11 6 6 1-11 4-7 6-3-9-2-4-3-5-1-1-4h7l2 1v-4l3 1-1 3h8l-5-2-4-4-18-2h-5l-1-9-1-7 4-5 1-4-2-1v-5h-4l-4 1v2h-3l-1 3-4 2h-5l-1 2v-4l-5 1-1-3 2-5 5 1v-4l-4 1-2 1-2-6-2 1-3-8-1-5v-6l2-3h2l1-4 4 2-2-5 2-2h2l1-6h2v-2h3l5-5 6-1v-3l5-1 4 4 1 6-3 3v4l2-1v4l3 1v3l8-1-1-3 3-3 3-12v-15l-3-10h-2l-6-13-1-4 3-5 3-1 4-2-1-5-2-9 2-1v-4l7-2 1-1h-2l2-4 2-7h2v-3l10-6 3-3 2-6v-11l2-4v-9l1-4 4-2 3-1 1-6 8 2v-3l5-1 4-4h9v2l-2 1 9 3v4h13l6 2-2 3 4-3h3 9l1-3 5 2 5 11h-2l-1 2-4-1 7 16 1 4-5-5v2 7l2 4h3v4l-5 3v2l6 4 2 5 4 5v2l3 1v2l5 1 3 13v20h6l3 5 6 13 3 13 4 12 5 13 4 11 5 13 5 25 2 20 6 23v14l-5 23-7 40-1 10h2v2h3l-1-3 3-1v-2h-3v-2l4 1 2-1 2 2 4 2-1 5 6 8-2 6 3 5v6l6-1 3 1v2l-4 1-4-1 1 6 6-2v-2l4-2 1-4 6-7 1-10h-2v-2h2l-3-5h2v-5l3-2 2-6h3l1-1 2-4 1-3v-7l2-2h3v-6l5-2 1-3h6v2h3l2 5-1 5-4 8-1 10-1 4-1 2 4 1 4-1 3-1-1-2h-2l-1-5 5-1-1-2h2v-2l-5 1 2-6 4-5 1-6 2-3h2l1-4-4-4 5-2 3-1 1 2 4 1 3 2v4h3l-1-8 1-4 3 1 2 2 4-5 3 2v4l-1 6-2 4 5-8 2-5h5v2h4l2-4 3-3 2-6h-3l-1 4-4 4-2-1v-5l5-5 13-2 2-1h6v4l-6 9-2 4h-3v2l4-1 4 3 2 4v-8l3-4 1-7h3l-2-11-6-3-6 2-4 3-9 1-2-4-3-1v-2l5-4 5-5 2 1v2l5-1-2-2 1-10 3-1-1-9 1-2 6-2 1-7 3-1 1 3 2 1v-10l-4-3-1-1-6 1v-3h3v-9l-1-3-3-1-3-7h4l1 5h2l-2-5h2l1-4 1-7-3-2-5 1v2h-3l-1-4-2-1-1 2v-3h2l1-9 1-2 5-1v-2h-2v-6l1-2-1-4 1-2h-3l2-8-3-2h-2v-2l-2-1 2-3v-1h-2l-1 2-4-7 1-2h3l-2-1h-5v-5h2v-2l-3-1v-4l2-1 1-3h2l-1 4h2v-7l-4-4h-2l-5-1-1-3 1-4-1-8h-2l-1-5h-5v-2h-2l-1-7 4 2-2-4v-6l-3-3-7-3-2-3-2-1 1-4-3-1-2-7 3-1 2-4v-9l3-2h1v-3h-2v2h-2l1-8h-2l-1 6-1 4-4-2 3-1v-6l-3-1-4-5-6-2-6-3-1 3-2-5 11 1 6 3 1 3 3 1-1-4-4-2-3-3 5 1-4-5-2-1-1 2v-3h-8l-5-2-1 2-1-2 2-3v-1zm6 8m27 42m1 11v4h2v2h2l-1-5zm5 0-1 3 3-1zm-7 5 1 3 1-3zm32 211m6 0-1 3-4 1 2 2 6-4v-2zm3 13v3l2 2 2-2v-3zm-1 5-5 2v5l4 1 2-2 1-6zm-1 13-2 4 3 3h5l-2-6zm-23 2 1 4-4 1 3 10h6v-8l1-2-3-4zm15 2-2 1v3h3zm-578 7 2 2v-2zm576 0-4 2 1 7 4-1-1-5zm6 1-1 3h5v-3zm-30 2v5l4-2-1-3zm6 0m-515 22v3h2l1 2-1-5zm449 1-2 8-2 23 2 6 2 11h1l1-9v-31l-1-8zm-400 18 1 3zm1 3 2 3v-3zm79 20-2 10-1 2h5l2-5-1-6z" fill="#F5D6CC"/>
<path transform="translate(598,1486)" d="m0 0h24l15 2 17 3 15 6 10 9 2 10 6 2 3 5 3 8-1 9-5 5-8 4-2 8v12l10 7 4 5-1 12-1 11-4 13-11 32-5 8-2 6-9 4-5 2-3 12-3 32-4 10-9 6-13 4-14 3-7 1h-31l-14-2-15-5-5-5-4-25-3-23-11-37-7-24-4-13-6-11-6-4-17-5-14-4-12-6-8-7-5-10-2-7-5 3-1 3-7 1-4 4-5 13-3 7-9 11-10 10-9 14-8 7-10 6-8 3-3 1 2 6 8-3h10l8 3 1 4-1 7h2v-11l3-2h13l1 5-6 3-2 15v7h14l1-2 2-16 3-9 3-3h8l1 4-2 3v16l-1 7 13-1 1-1 2-17 3-9 2-2h8l-1 4-2 4-1 21 8-1 12 1v-2h2l3 9-1 9-4 4v-5h-19l1 3 10 2 11 7 3 6 2 1 7-1 8 3-1 3-15 6-7 4v8l-1 2-17 4-11 3-16 3-9 4-13 3-19 6-19 4-17 2-46 3h-68l-24-1-5-3-10-2-14-1-9-2v-6l2-4v-6h-9v-13l-4-4 2-3 14-2 2 1h6l3-3 9-3 10-2 9 1 12-2 2-1 36-5 14-3h-19l-5-6-1-3-6-2-1-4 6-3v-18l3-13 4-5 3-1 5 1-2 4-1 7-2 3-1 17h13v4h3l2-18 2-10 2-5h2l1-3 3-1 4 2-2 4-2 9-1 17 14-1 3 1 1-16 2-11 5-5h9l-4 6-2 8v8l3-2h5l3 5 4-5 2-10 2-7 4-4 12-1-9-5-1-1v-8l8-11 6-8 7-11 3-5 5-5 8-13 7-12 3-9 6-5 12-9 9-1 1 3 2 1-1-5h2l1-3 14-3h2l4-2 3-5 8-5 15-3 33 2 5-5 5-4 15-6 27-6 18-1 8-2zm-142 39-1 16 3 9 3 5 3 2 7 1 7-1 2-2v-12l4-1h2l1-6-4-6-2-1-16-2-2-2zm-42 15 1 3zm66 16 1 2zm-64 85-3 8-2 11v5l2 2 5-1 1-25zm-60 3v6h1v-6zm87 0v6h1v-6zm-160 3v6h1l1-6zm159 4-2 4v11l3-1 1-14zm-161 7-1 5 1 8h1l2-13zm147 22 1 2h6v-2zm-155 1 4 1zm32-1-10 1 3 3 6 1 2-1zm89 2-7 1-5 1-11 1v1l29 1h29l2-2-22-2-2-1zm-93 5 1 3h5l-3-3zm83 10-29 1-12 3-5-1-9-1-2-1h-14l-7 3-2 2h-14l-27 2-18 2-23 4-20 5 1 4 20 9 15 5 9 2 10 1h33l58-5 19-1 18-2 31-5 13-3 17-8 9-5 1-3-3-4-3-1-17-1-4-1zm-202 28-4 2 2 8 8 3 19 1 10 1v-2l-16-6-11-5-5-2z" fill="#6CCDE0"/>
<path transform="translate(856,1134)" d="m0 0h2l2 10 2 1 1 5h3l6 13 4 7 7-1 12-3 2-3h3l1-2-4-3 1-2 4 2 1-2v2l4-1 3 2 2-1v2h5l1 5h2l2-6 5 5-2 2v3l4-1v2l8 1-3-3 7-2h4v3l5 2v5l5 2 3 6 1 4 2 2v5l2 4 4 18-6 8-7 6-2 7-1 1 1 10 3 6v3h54l12-1 1 1h7l5-1 3-3 3-6 4-2v-6h2l1-4 4-10 5-13 3-1v-2h2v6h-2l2 6-1 2h-2l-1 7 3 2-2 9 14-2 5-3 1-3h2l2 5v4 5h2l1 8 11 1v1l-16 1h8l4 2 4-2h7v2l-8 2h13l5 1h15v-2l3 1v2l10-1-5-2 1-2h6l5 5h7v2l12-2 12 2h10l4-2 7 2 10-2h-15l1-2 12-1 9 1v2l13 2 18 2h18l6 1 8-1 10 2 4 2 9-2 4 2v2l6-1 4 3 3-1 3 3-2 3-6-1-2 4-5-1-5 5-7-3-1-1h-5l-4 8h-2l-2 5-4 1-7-2-7 3-12 1-4 1-4 5-3 1-1-4-2 4h-5l-3-3-6 1v3l-5 2h-9l-2-1-7 2-9-1h-5l-1 5-3 2h-6l-3-4-7-3h-7l-16 2-7 1-9 2h-5l-1 1-12-1-1 3-9 3h-3l-3-3-2 2h-7l-2 2-8-1-5 2-16 1-4 3-4-3h-8l-2 1-9 1-7 2h-6l-4 2-2-1v-2l-5 2-14 4h-5v-2h-5v5l-1 1-14 1-4 1v2l-6 1-2-2-5 1-4 2h-6l-3-3-7 1-5 2-8 2-6 2-6-1-2-1-23 1-5 2-2-3h-8l-8-2v-2l-12 4h-3l-1 2-1-1-2 4h-3l-1-6-12-5-6-5-9-3-2-8-3-4-7-3-2-7-4-3-2-8-2-7-3-3-2-7-2-1 2 14 3 11-1 9-2-4-5-24-1-10 5-7 5 1 2-4 5-5 4-2 8-1h52l5-3 1-18-2-7-5-11-4-16-1-17 5-9v-14l-4-12-1-8h3l3 6 1 3 1-3h2l-2-5 1-9zm35 50v11l6 4 1 3h4l3-5 4-2v-4l-5-2-2-5z" fill="#D7D7DF"/>
<path transform="translate(978,956)" d="m0 0h8l5 5 3 7 1 14v23l1 35 1 10 1-6v-40l-1-12 1-2 8 1 5 3 5 8 3 14 1 11 3 14 2 15 5 21v3h2l9 16 4 12 4 4 1 7-1 3 5 13 3 14 3 5 1 10 3 14 1 6v8h2l-1 5-1 8-2 1-2 4h-2v2l-2 1-6 15-5 12h-2v6l-5 5-3 5-1 2-13 1-1-1-12 1h-50l-4-1-4-9-1-10 2-2 1-6 10-9 3-5-5-21-1-4-2-4-2-5h-1v-5l-5-2-1-5-5-2 1-3-9 2 3 3-3 1-8-3h-3l-1-5 1-1-7 2-1-4-7-1-4-2h-6l-3-2v-2l-5-2v-4l-1-4h-2l-1 2-1-1 1-7v-4l-3-3-5 1-3 2-9 2-11-1-2 10 1 5h-2l1 3h-2l-2-2-2-7h-4l-3-8-7-14-1-9-3-6v-2l-6 2-2-1v-2h-2l-2-5-2-1v-4h-3l-1 4-9 1-1 2-5-1 2 4-4-2-8-5-1-5-2-3 4-6v-11l-3-1-2-5-7 4-1 4-7-1-1 3-6-1 1-3-7 1v2l-5-2v-2l-4-1-5-8v-5l1-1h6l-6-7 1-4 2 2 6-6-6-2 5-5 2-3 1 5-2 2 4 2-1 4-3 2-2 6h2v3l3 1 2 4v3l-2 1 1 3 5 1 1-1 4 1v2l4-1 4 1-2-1v-2l-4-2-2-7 1-4 2 2-1 5h5v2h4v2h-3l4 1-2-6 2-1v2l5 1 1-4 2 8 5-3 1 4 3-1 1 7 1 3-3 1h-2v4l5-1 2 3v4l5 1v2l-5-1-7 2-3-1 4 5 7 1 3-1v2l8-1 1-7h4l3 5h4l-1 4h2l1-3 5 1-1 3 2-1 1-6-3-1 2-2 1 1 7 1 5-1 3-1 2 9 2 1 1-2h5l-1 2 4 1 1-3h5v5h4l1-2h2l1 4 2 2-4 5 2 9 3 5 1-3-3-1v-5l1 2h2v-2h2v2l5 1 2 3 2-2 5 1 5 2v3l5-1-1 4 3 2-1 4-5 1-2-2v3h-2l-1 5 10-4 3-3h3l1 2 5-1 2-5 2-8 5 1 2 1 1 5h2l1-5 3 2v5l4 1 4 6 4 7 6 10 7 10 3 4v2h2l6 8 3 1 1 2 4 1-2-6-3-2-1-8h-2l-10-20-2-5-2-1 1-5 3-3-6 4h-3l-1-7-2-5 3-8h2l3-6-4 1 1-5 2-1-2-4v-3l2-4 2-7v-4l3-1-1-4 2-1 3 15 1 2 3 1 1 2-1-10 1-9v-7l-2-1 3-1v-3h-2v-2h-2l1-13 1-8h2l1-9v-8l1-2v-14l2-9 1-7v-10l1-10-1-2v-8l2-3-1-1v-5zm-227 102 2 2v-2zm43 25v3h2l1 2-1-5zm49 19 1 3zm1 3 2 3v-3zm79 20-2 10-1 2h5l2-5-1-6z" fill="#F5D6CC"/>
<path transform="translate(450,1512)" d="m0 0 4 1-8 4-1 2 5-2h20l17 3v1h-9l-10-1h-15l-7 3-5 9-1 5 1 20 1 5-3-4-3-9-5 3-1 3-7 1-4 4-5 13-3 7-9 11-10 10-9 14-8 7-10 6-8 3-3 1 2 6 8-3h10l8 3 1 4-1 7h2v-11l3-2h13l1 5-6 3-2 15v7h14l1-2 2-16 3-9 3-3h8l1 4-2 3v16l-1 7 13-1 1-1 2-17 3-9 2-2h8l-1 4-2 4-1 21 8-1 12 1v-2h2l3 9-1 9-4 4v-5h-19l1 3 10 2 11 7 3 6 2 1 7-1 8 3-1 3-15 6-7 4v8l-1 2-17 4-11 3-16 3-9 4-13 3-19 6-19 4-17 2-46 3h-68l-24-1-5-3-10-2-14-1-9-2v-6l2-4v-6h-9v-13l-4-4 2-3 14-2 2 1h6l3-3 9-3 10-2 9 1 12-2 2-1 36-5 14-3h-19l-5-6-1-3-6-2-1-4 6-3v-18l3-13 4-5 3-1 5 1-2 4-1 7-2 3-1 17h13v4h3l2-18 2-10 2-5h2l1-3 3-1 4 2-2 4-2 9-1 17 14-1 3 1 1-16 2-11 5-5h9l-4 6-2 8v8l3-2h5l3 5 4-5 2-10 2-7 4-4 12-1-9-5-1-1v-8l8-11 6-8 7-11 3-5 5-5 8-13 7-12 3-9 6-5 12-9 9-1 1 3 2 1-1-5h2l1-3 14-3h2l4-2 3-5zm-36 28 1 3zm2 101-3 8-2 11v5l2 2 5-1 1-25zm-60 3v6h1v-6zm87 0v6h1v-6zm-160 3v6h1l1-6zm159 4-2 4v11l3-1 1-14zm-161 7-1 5 1 8h1l2-13zm147 22 1 2h6v-2zm-155 1 4 1zm32-1-10 1 3 3 6 1 2-1zm89 2-7 1-5 1-11 1v1l29 1h29l2-2-22-2-2-1zm-93 5 1 3h5l-3-3zm83 10-29 1-12 3-5-1-9-1-2-1h-14l-7 3-2 2h-14l-27 2-18 2-23 4-20 5 1 4 20 9 15 5 9 2 10 1h33l58-5 19-1 18-2 31-5 13-3 17-8 9-5 1-3-3-4-3-1-17-1-4-1zm-202 28-4 2 2 8 8 3 19 1 10 1v-2l-16-6-11-5-5-2z" fill="#C7C7CE"/>
<path transform="translate(1116,1049)" d="m0 0 3 1-1 5-4 16-1 8 1 1 1-3v13l2 14 3 10 8 21 3 5-2 1v2h2l3 13-1 4h2l1-2 7 21 5 16 4 28 4 15 4 4 8 2v1h-8l-9-5 2 14v3l-55 1-16-1 3-1-2-6 1-2h-2l-2-8v-3-3l-5 6-8 2h-9v-5l1-4-3-2 2-7h2l-1-8 2-7 2-4h2v-8l2-5h-2l-3-20-3-13-1-7-2-3-4-16-4-12 1-7h2l3-8 7-7 7-9 16-8h7l7-9 2-4 6-9h2l2-5 3-5z" fill="#CAC7D2"/>
<path transform="translate(856,1134)" d="m0 0h2l2 10 2 1 1 5h3l6 13 4 7 7-1 12-3 2-3h3l1-2-4-3 1-2 4 2 1-2v2l4-1 3 2 2-1v2h5l1 5h2l2-6 5 5-2 2v3l4-1v2l8 1-3-3 7-2h4v3l5 2v5l5 2 3 6 1 4 2 2v5l2 4 4 18-6 8-7 6-6 7 1 9 4 10v2h-28l2-1v-2l6-5 3-7 1-9 1-2-5 5-3 6v4h-2l-2 5-4 6-18 1h-38l-2-5v-12l1-10-4-4v-2l-5-1-1 4-6-16-2-10-1-17 5-9v-14l-4-12-1-8h3l3 6 1 3 1-3h2l-2-5 1-9zm35 50v11l6 4 1 3h4l3-5 4-2v-4l-5-2-2-5z" fill="#E8E9EF"/>
<path transform="translate(392,1687)" d="m0 0 51 2 23 3 5 2 3 5 8-1 8 3-1 3-15 6-7 4v8l-1 2-17 4-11 3-16 3-9 4-13 3-19 6-19 4-17 2-46 3h-68l-24-1-5-3-10-2-14-1-9-2v-6l2-4v-6h-9v-13l-4-4 2-3 14-2 2 1h6l3-3 9-3 10-2 9 1 12-2 2-1 28-4 36-3 15-2 8-2h14l8 1v1h13l9-1v-2zm-8 10-29 1-12 3-5-1-9-1-2-1h-14l-7 3-2 2h-14l-27 2-18 2-23 4-20 5 1 4 20 9 15 5 9 2 10 1h33l58-5 19-1 18-2 31-5 13-3 17-8 9-5 1-3-3-4-3-1-17-1-4-1zm-202 28-4 2 2 8 8 3 19 1 10 1v-2l-16-6-11-5-5-2z" fill="#1F1F1F"/>
<path transform="translate(1266,739)" d="m0 0 1 3 10 2 2 1 1 3 6-1 1 3h3v3l5 1 1 4 3-1 2 2v6h3v5l-3 4-1 10-1 2 5 2 4 2 5 1v2l5 2 1 5-6 7-1 4-1 1v5l3 2 2 4h7l2-1h10l4 4 1 3 3 2v3l-7 1-1-5h-9l-3 1-1 4h-2l1 5 3 2v1l7 1-1 3h-2l4 9v13l4 8 2 5 5 1 1 3 3 1 1 4-2 7 1 9 4 1v6h-4l1 8v3l-6 2 1 2 3 1v-3l3 1 1 9 3 3v3l-3 1 1 5 2 4h-3l-1 8 2 2 6 1 3 3 3 6v5h-3l-2-1v5h2l1 4 2 1-1 3 5-1 3 4-1 4-2-1-1-3-4 1-2-1-1 5h-2v-2h-3l-3 5-2 3v8l-3 1v-8l1-7-1-1-3 6-2 1-3-3 3 7 4 6v3l5 1 5 2-1 19-1 2h-3l-1 2h-2l1 10 2 2-2 2h-4v-2l-3 1-1 5 3 1-7 8-7 2-4-1-2-1v2l-8 6-1 2-5 1-5-2-1 7 4-1-2 4h-2l-1 4-2 1-3 8-6 3h-4v2l-5 2v2l-10 1v-2l-5 1-3 1-2-4h-5l-1 7-3 6-1 3-1-1-2 4-1 7-1-2h-2l-1-40-1-2-1 2-1 9h-5v-2h2l-3-5h2v-5l3-2 2-6h3l1-1 2-4 1-3v-7l2-2h3v-6l5-2 1-3h6v2h3l2 5-1 5-4 8-1 10-1 4-1 2 4 1 4-1 3-1-1-2h-2l-1-5 5-1-1-2h2v-2l-5 1 2-6 4-5 1-6 2-3h2l1-4-4-4 5-2 3-1 1 2 4 1 3 2v4h3l-1-8 1-4 3 1 2 2 4-5 3 2v4l-1 6-2 4 5-8 2-5h5v2h4l2-4 3-3 2-6h-3l-1 4-4 4-2-1v-5l5-5 13-2 2-1h6v4l-6 9-2 4h-3v2l4-1 4 3 2 4v-8l3-4 1-7h3l-2-11-6-3-6 2-4 3-9 1-2-4-3-1v-2l5-4 5-5 2 1v2l5-1-2-2 1-10 3-1-1-9 1-2 6-2 1-7 3-1 1 3 2 1v-10l-4-3-1-1-6 1v-3h3v-9l-1-3-3-1-3-7h4l1 5h2l-2-5h2l1-4 1-7-3-2-5 1v2h-3l-1-4-2-1-1 2v-3h2l1-9 1-2 5-1v-2h-2v-6l1-2-1-4 1-2h-3l2-8-3-2h-2v-2l-2-1 2-3v-1h-2l-1 2-4-7 1-2h3l-2-1h-5v-5h2v-2l-3-1v-4l2-1 1-3h2l-1 4h2v-7l-4-4h-2l-5-1-1-3 1-4-1-8h-2l-1-5h-5v-2h-2l-1-7 4 2-2-4v-6l-3-3-7-3-2-3-2-1 1-4-3-1-2-7 3-1 2-4v-9l3-2h1v-3h-2v2h-2l1-8h-2l-1 6-1 4-4-2 3-1v-6l-3-1-4-5-6-2-6-3-1 3-2-5 11 1 6 3 1 3 3 1-1-4-4-2-3-3 5 1-4-5-2-1-1 2v-3h-8l-5-2-1 2-1-2 2-3v-1zm6 8m27 42m1 11v4h2v2h2l-1-5zm5 0-1 3 3-1zm-7 5 1 3 1-3zm32 211m6 0-1 3-4 1 2 2 6-4v-2zm3 13v3l2 2 2-2v-3zm-1 5-5 2v5l4 1 2-2 1-6zm-1 13-2 4 3 3h5l-2-6zm-23 2 1 4-4 1 3 10h6v-8l1-2-3-4zm15 2-2 1v3h3zm-2 7-4 2 1 7 4-1-1-5zm6 1-1 3h5v-3zm-30 2v5l4-2-1-3z" fill="#C8C5CF"/>
<path transform="translate(752,1031)" d="m0 0 2 4-2 3 4 2-1 4-3 2-2 6h2v3l3 1 2 4v3l-2 1 1 3 5 1 1-1 4 1v2l4-1 4 1-2-1v-2l-4-2-2-7 1-4 2 2-1 5h5v2h4v2h-3l4 1-2-6 2-1v2l5 1 1-4 2 8 5-3 1 4 3-1 1 7 1 3-3 1h-2v4l5-1 2 3v4l5 1v2l-5-1-7 2-3-1 4 5 7 1 3-1v2l8-1 1-7h4l3 5h4l-1 4h2l1-3 5 1-1 3 2-1 1-6-3-1 2-2 1 1 7 1 5-1 3-1 2 9 2 1 1-2h5l-1 2 4 1 1-3h5v5h4l1-2h2l1 4 2 2-4 5 2 9 3 5 1-3-3-1v-5l1 2h2v-2h2v2l5 1 2 3 2-2 5 1 5 2v3l5-1-1 4 3 2-1 4-5 1-2-2v3h-2l-1 5 10-4 3-3h3l1 2 5-1 2-5 2-8 5 1 2 1 1 5h2l1-5 3 2v5l4 1 4 6 4 7 6 10 7 10 3 4v2h2l6 8 3 1 1 2 4 1-2-6-3-2-1-8h-2l-10-20-2-5-2-1 1-5 3-3-6 4h-3l-1-7-2-5 3-8h2l3-6-4 1 1-5 2-1-2-4v-3l2-4 2-7v-4l3-1-1-4 2-1 3 15 1 2 3 1 1 2-1-10 1-9v-7l-2-1 3-1v-3h-2v-2h-2l1-7 1-5h1l1 5h1l1-7 3-2 1 4-1 3 1 7 3 6 3 18v7l-1 1v9l-1 5 3 3v6l-3 1 3 7h-2l-1 4 2 4v9l3 18 2 7-1 15-4 17-2 5-1-2h-3l-4-6-5-5-2-4-4-4-3-5v-2h-2l-5-10-5-7v-2l-4-2v-1l-9-1-1-2h-3v2l2 1h-2v2h-2v2l-6-1v5l-4 1-1-4-7-1-4-2h-6l-3-2v-2l-5-2v-4l-1-4h-2l-1 2-1-1 1-7v-4l-3-3-5 1-3 2-9 2-11-1-2 10 1 5h-2l1 3h-2l-2-2-2-7h-4l-3-8-7-14-1-9-3-6v-2l-6 2-2-1v-2h-2l-2-5-2-1v-4h-3l-1 4-9 1-1 2-5-1 2 4-4-2-8-5-1-5-2-3 4-6v-11l-3-1-2-5-7 4-1 4-7-1-1 3-6-1 1-3-7 1v2l-5-2v-2l-4-1-5-8v-5l1-1h6l-6-7 1-4 2 2 6-6-6-2 5-5zm-1 27 2 2v-2zm43 25v3h2l1 2-1-5zm49 19 1 3zm1 3 2 3v-3zm79 20-2 10-1 2h5l2-5-1-6z" fill="#C9C6D0"/>
<path transform="translate(936,628)" d="m0 0 12 1-3 2h-5v2l-6-1-4 2-2-1-1 6-4 2-2 2-2-1v2l-7 1h-3l-1 3-4 1-4 2-5 8 1 4-2 9-5 1-1 2v-2l-10 2h-2l-1-3-1 4 4 1-10 8-5 3h-2l-1 5h2v3h-2v3h-3l-2 4-4 1-1-1-1 3h-2l1-4h-2l1-4-5 3-4 2v5l-3-1v-3l-2 3h-2v2h-2l1 4-3 3v3l-6 2-1 4-5 4-2 3v-2h-2l2 6-1 5-2-2-1-3-4 6 3 1 4 2-1 4h-2v-2l-3 1-1 3h-2l-1 5-2-1v-4h-5v2l4-1v4l2 1-1 2h-8l-4 8v3h-3v2h-2l1 2 3-2-1 7-3 2-2 4-4 1-3 3 4 1 4-2h3l1 3-3 2-3-2-1 8-5 1-2 2v-2h-2v7h-2v2h-2l-1 4-5 1-1 7v3l-2 2 1 2-3 4h2v2h-3v2h2l1 5-5-1-1 6v9l3-1 1 1v5l-4 3-4-1h-4l-1 4 2 5-4-1 1 6-4 4-7 1 1 1 5-1v3l3-1 2 2 4-2v-2l5-2 1-6 6-1-1-5-4 4v-3l-1-1v-2h2v-2l3-1 1-1v-2l4-2-3 13h2l4 7 2 4-3 4-2 3-1-3h-2l-1 2-3 4v-4h-3l-1-2-2 4h-2l2 4-4 2v4l1 11 2 7-5 5-1 2-6 2-3-2v-3l-1 4 2 1v5h-2l-2 7-3 7 2 2-1 5-2 4-4 1v5l6 2v3l2 1-4 2v2h-5l-3 7h2v-4l6-1 4 4 5 15h2l1 4 2-2 2 4-1 3h3v3l4 1-5 1v-2l-3 2 1 4h2v-2l4-1-2 4-2 1 2 2-5 1v-2l-3 1v2l5 4 5 3 1 3-6-1-12-4-1-7h-6l-1-5 1-3 9-5h2l-1-3-10-2-2-4h2l-4-8-2-5-1-8 4-4v-3l-3-1 2-10 4-5v-8l5-4 1-13-3-5h-4l-1 4 4 1h-2v4l-4 1v7l-5 5-1 2-3-1-1-8 6-3 1-9-8-1-1-3 5-4 5-3v-8l3-1v-9l-2-1 2-3v-3l12-12 4-2 2-8-5 3-3 4-4 2h-3v-2h3l1-4 4-2v-6l-1-1-1-8 4-1 2 5 1-5 3-3 3-4 1-4-6-1-2 5-4 1-1-3 5-9 2-2 5 1v2l7-4 3-6v-3l-2-1-1-9 1-5-2-2 1-7 6-10 4-12 7-1 5-5 2-1h9l4-12 2-2 2-5 3-2 2-6 11-7h2v-3l13-13 4-6 10-10 9-5 4-1-1-2-6-1 1-2 12-1 4-5 3-6 12-9-1-3 4-2 3-8 4 1 16-8 3-4 7-1 1-1 8-1 7-6 5-5 6-1zm-48 30-6 6-1 8 10-4-1-5 1-5zm-147 194-1 1v5h2v-6zm4 33m-13 12v4h2l-1-4zm-14 15m18 0-3 3 1 6 8-2 2-2v-4l-2-1zm-22 21-1 2h2zm9 46 1 4 5 5v-5zm6 9v7h4l-1-5z" fill="#C4C0CA"/>
<path transform="translate(450,1512)" d="m0 0 4 1-8 4-1 2 5-2h20l17 3v1h-9l-10-1h-15l-7 3-5 9-1 5 1 20 1 5-3-4-3-9-5 3-1 3-7 1-4 4-5 13-3 7-9 11-10 10-9 14-8 7-10 6-8 3-3 1 2 6 4-2 3 1-2 6-2 9-1 13-1 1-17 1v2h13l5-1 1 13 1-1-1-8v-19h1v18h3l-1-8h-1v-7l2-1 1-7h1l-1 25 1 9-20 2-5-1-1-7-1-9v-9l-1 16 1 10h-4l-2-15v-17l-1-4 3-9 4-4 12-1-9-5-1-1v-8l8-11 6-8 7-11 3-5 5-5 8-13 7-12 3-9 6-5 12-9 9-1 1 3 2 1-1-5h2l1-3 14-3h2l4-2 3-5zm-36 28 1 3zm-58 104v6h1v-6z" fill="#E7E9EF"/>
<path transform="translate(574,1491)" d="m0 0h33l10 3 14 1v6l1 4 7-1-3-5 5-4 11 1 13 5 5 5v6l-8 6-9 5-3 2-35 6-23 2h-32l-22-2-16-3-16-6-4-4v-6l4-4 3-2h3v-2l8-2 3-3 20-4h14z" fill="#16B2CA"/>
<path transform="translate(1200,1086)" d="m0 0 4 1 2-1 2 2 4 2-1 5 6 8-2 6 3 5v6l6-1 3 1v2l-4 1-4-1 1 6 6-2v-2l4-2 1-4 6-7 2-10 2 1-1 13 2 6 1 8 1-6h1v9h2l3-10 2 1 1-4 4-11h5l3 3 5-2 2 1v2l8-2 2 1v-2l5-2v-2l5-1 2-2h2l1 6h-2v-2h-2l-1 4-2 7-6 3-9 5-4 3-7 2 4 6h3l-1-4 11-8h4l-1 6-2 6-4 7-5 4-6-1-3-3-7 1-3 2-2 5-8 8-3 5-3 4-4 6h-2l-2 4-3 4-2 4v-2h-4-2l-3-5v-3l-4-2-2-14-5-13h-2l-1-6-3-1v-3l-2-1 1-2 2 1v-2h-2l-1-6-1-2v-8h-2v-2h2v-2h-2v-14l1-12h1v5h2v2h3l-1-3 3-1v-2h-3z" fill="#C8C5D0"/>
<path transform="translate(752,1031)" d="m0 0 2 4-2 3 4 2-1 4-3 2-2 6h2v3l3 1 2 4v3l-2 1 1 3 5 1 1-1 4 1v2l4-1 4 1-2-1v-2l-4-2-2-7 1-4 2 2-1 5h5v2h4v2h-3l4 1-2-6 2-1v2l5 1 1-4 2 8 5-3 1 4 3-1 1 7 1 3-3 1h-2v4l5-1 2 3v4l5 1v2l-5-1-7 2-3-1 4 5 7 1 3-1v2l8-1 1-7h4l3 5h4l-1 4h2l1-3 5 1-1 3 2-1 1-6-3-1 2-2 1 1 7 1 5-1 3-1 2 9 2 1 1-2h5l-1 2 4 1 1-3h5v5h4l1-2h2l1 4 2 2-4 5 2 9 3 5 1-3-3-1v-5l1 2h2v-2h2v2l5 1 2 3 2-2 5 1 5 2v3l5-1-1 4 3 2-1 4-5 1-2-2v3h-2l-2 10 8 1v2h12l1 2h-9l-1 3-10-1-4-3 1-4-1-3h-2l-1 2-1-1 1-7v-4l-3-3-5 1-3 2-9 2-11-1-2 10 1 5h-2l1 3h-2l-2-2-2-7h-4l-3-8-7-14-1-9-3-6v-2l-6 2-2-1v-2h-2l-2-5-2-1v-4h-3l-1 4-9 1-1 2-5-1 2 4-4-2-8-5-1-5-2-3 4-6v-11l-3-1-2-5-7 4-1 4-7-1-1 3-6-1 1-3-7 1v2l-5-2v-2l-4-1-5-8v-5l1-1h6l-6-7 1-4 2 2 6-6-6-2 5-5zm-1 27 2 2v-2zm43 25v3h2l1 2-1-5zm49 19 1 3zm1 3 2 3v-3z" fill="#C7C4CE"/>
<path transform="translate(904,1259)" d="m0 0 5 1v1h-21l1 1h37l3 3 2 3 4-2 15 1v2h2v-3l3-1 3 1 6-1v3l9-1 2 3h5v2l6-1 1 4-1 2-11 1-7 1-2-1-2 4-6 1h-8l-1 2-3-1-7 1-11-1-1 2-2-2 1-1-4 1-2 1-5 1-5-2-1-1-3 5h-2v-2l-16 2-12-3-12 1v-2h-2v-2h-10l-10 2-7 1-3-2v-2h-9l-1-1v-6l2-3 10-2 4 2 1-3 1 2 5-1h1l4 1v-2h3v2l2-2 1-3 5 1v3l4-1-1-5 16 2v-2h6v-3z" fill="#CBC8D3"/>
<path transform="translate(1137,1707)" d="m0 0h16l-4 2-14 1-16 5-6 1-27 2-45 2-51 1h-30l-48 1-79-2h-24l-7-3v-3h30l46-1 5-1h35l1-1h5 1l35 1v-2h53z" fill="#CDCBD5"/>
<path transform="translate(1266,739)" d="m0 0 1 3 10 2 2 1 1 3 6-1 1 3h3v3l5 1 1 4 3-1 2 2v6h3v5l-3 4-1 10-1 2 5 2 4 2 5 1v2l5 2 1 5-6 7-1 4-1 1v5l3 2 2 4h7l2-1h10l4 4 1 3 3 2v3l-7 1-1-5h-9l-3 1-1 4h-2l1 5 3 2v1l7 1-1 3h-2l4 9v13l4 8 2 5 5 1 1 3 3 1 1 4-2 7 1 9 4 1v6h-4l1 8v3l-6 2 2 4-6 2v2h-3l-1-4-2-1-1 2v-3h2l1-9 1-2 5-1v-2h-2v-6l1-2-1-4 1-2h-3l2-8-3-2h-2v-2l-2-1 2-3v-1h-2l-1 2-4-7 1-2h3l-2-1h-5v-5h2v-2l-3-1v-4l2-1 1-3h2l-1 4h2v-7l-4-4h-2l-5-1-1-3 1-4-1-8h-2l-1-5h-5v-2h-2l-1-7 4 2-2-4v-6l-3-3-7-3-2-3-2-1 1-4-3-1-2-7 3-1 2-4v-9l3-2h1v-3h-2v2h-2l1-8h-2l-1 6-1 4-4-2 3-1v-6l-3-1-4-5-6-2-6-3-1 3-2-5 11 1 6 3 1 3 3 1-1-4-4-2-3-3 5 1-4-5-2-1-1 2v-3h-8l-5-2-1 2-1-2 2-3v-1zm6 8m27 42m1 11v4h2v2h2l-1-5zm5 0-1 3 3-1zm-7 5 1 3 1-3z" fill="#C4C1CB"/>
<path transform="translate(287,1636)" d="m0 0 5 2-2 4-2 9-1 17 14-1 3 1 1-16 2-11 5-5h9l-4 6-2 8h-1v-5h-2v10l-1 2-1 11h-4l2 13 3 7-2 3-7 2-31 3h-8v-1l14-3h-19l-5-6-1-3-6-2-1-4 6-3v-18l3-13 4-5 3-1 5 1-2 4-1 7-2 3-1 17h13v4h3l2-18 2-10 2-5h2l1-3zm-4 11v6h1l1-6zm-2 11-1 5 1 8h1l2-13zm-8 23 4 1zm32-1-10 1 3 3 6 1 2-1zm-4 7 1 3h5l-3-3z" fill="#A9A7AE"/>
<path transform="translate(1293,1102)" d="m0 0h3l1 6h-2v-2h-2l-1 4-2 7-6 3-9 5-4 3-7 2 4 6h3l-1-4 11-8h4l-1 6-2 6-4 7-5 4-6-1-3-3-7 1-3 2-2 5-8 8-3 5-3 4-4 6h-2l-2 4-3 4-2 4v-2h-4-2l-3-5 1-10h3l2-6 3-1v-2h2l2-5 2-3h2l2-4 5-5h2v-9l1-2 1-9h1v9h2l3-10 2 1 1-4 4-11h5l3 3 5-2 2 1v2l8-2 2 1v-2l5-2v-2l5-1z" fill="#D7D7DF"/>
<path transform="translate(1346,927)" d="m0 0 3 1 1 9 3 3v3l-3 1 1 5 2 4h-3l-1 8 2 2 6 1 3 3 3 6v5h-3l-2-1v5h2l1 4 2 1-1 3 5-1 3 4-1 4-2-1-1-3-4 1-2-1-1 5h-2v-2h-3l-3 5-2 3v8l-3 1v-8l1-7-1-1-3 6-2 1-3-3 3 7 4 6v3l5 1 5 2-1 19-1 2h-3l-1 2h-2l1 10 2 2-2 2h-4v-2l-3 1-1 3-7 1-1 2h-5l-1-2h-3l-1 2-3-2 1-6-2-3h-3v2l-4 1v-3l3-7h5v2h4l2-4 3-3 2-6h-3l-1 4-4 4-2-1v-5l5-5 13-2 2-1h6v4l-6 9-2 4h-3v2l4-1 4 3 2 4v-8l3-4 1-7h3l-2-11-6-3-6 2-4 3-9 1-2-4-3-1v-2l5-4 5-5 2 1v2l5-1-2-2 1-10 3-1-1-9 1-2 6-2 1-7 3-1 1 3 2 1v-10l-4-3-1-1-6 1v-3h3v-9l-1-3-3-1-3-7h4l1 5h2l-2-5h2l1-4 1-7-2-4h2zm-16 89m6 0-1 3-4 1 2 2 6-4v-2zm3 13v3l2 2 2-2v-3zm-1 5-5 2v5l4 1 2-2 1-6zm-1 13-2 4 3 3h5l-2-6zm-8 4-2 1v3h3z" fill="#C6C3CD"/>
<path transform="translate(1274,1206)" d="m0 0 4 1-1 5-1 2 9-2 9 2 4 1 3 4 1 5-1 1v11l1 8-3 8h-5l-1 2h-36v-1l7-1v-2h-2l-3-7-4-7 1-6 5-12 5-8 7-3z" fill="#D7D7DF"/>
<path transform="translate(364,1635)" d="m0 0h10v4l-5 2-1 7h-2v19l1 5v10l10-1-4 2-13 3-9 2h7v3l-9 1h-17l-4-2h-19l1-3-4-9-1-10 2-2 3 2v-11l1-2 1-10h2l1 13 3-2h5l3 5 4-5 2-6h1v21l1 13h4l-2-12 1-15 2-12h1l-1 22 1 14 1 2 24-1-2-10 1-17-3 1 2 2v13l-3 1 1 9h-2l-2-9v-3l-6 1-11-1v-2l17-2 2-18 2-9z" fill="#B9C2CD"/>
<path transform="translate(443,1636)" d="m0 0h8l-1 4-2 4-1 21 8-1 12 1v-2h2l3 9-1 9-4 4v-5h-19v4l7 2v2l-10-1-7-2-22-2v-1h5l-2-5-5-1 1-2 4 1-1-7 2-25 2-5 1 2v19l-1 7 13-1 1-1 2-17 3-9zm0 8v6h1v-6zm-1 7-2 4v11l3-1 1-14zm-14 29 1 2h6v-2z" fill="#373637"/>
<path transform="translate(665,1525)" d="m0 0 1 3h2l1 10v43l-3 11-4 6-1 5-2 2-2-4-4-1-3-9-1-7 1-16v-15l2-10v-11l8-4h5z" fill="#16B2CA"/>
<path transform="translate(1059,1210)" d="m0 0h2v6h-2l2 6-1 2h-2l-1 7 3 2-2 9 14-2 5-3 1-3h2l2 5v4 5h2l1 8 11 1v1l-25 1h-19l-1 3h-8l-3-1v-2h-5l-1-3 3-2 3-6 4-2v-6h2l1-4 4-10 5-13 3-1z" fill="#D6D6DE"/>
<path transform="translate(686,1576)" d="m0 0 5 5-1 12-1 11-4 13-11 32-5 8-2 6-9 4-6 1-1-3 2-11 2 1 3-5 4-4 10-30 13-36z" fill="#B2BEC9"/>
<path transform="translate(287,1636)" d="m0 0 5 2-2 4-2 9-1 17 14-1 3 1 1-16 2-11 5-5h9l-4 6-2 8h-1v-5h-2v10l-1 2-1 11h-4l2 13 3 7-2 3-7 2-11 1h-12l1-3 5-2 12 1v-2l-9-1-2-14v7l1 7-5-1-1-2-2-15-2 4 1-18 2-10 2-5h2l1-3zm-4 11v6h1l1-6zm-2 11-1 5 1 8h1l2-13zm24 22-10 1 3 3 6 1 2-1zm-4 7 1 3h5l-3-3z" fill="#CBC8D3"/>
<path transform="translate(782,1322)" d="m0 0h3l3 6 4 3 3 13 5 12 8 1 6 5 2 3v5h-2l-1 3h5l2-2h4l2 5 5 3-1 4-6 1h-5l1 16-1 6v2l-3-1-1-8v-9l-4 1-6-4-5-2-1-3 1-4-4-2-3-12v-8l-3-9v-2l-4-1v-11l-2-6h-2z" fill="#D7D7DF"/>
<path transform="translate(203,1720)" d="m0 0 4 1 16 7 15 5 9 2 10 1h33l58-5 19-1 5-1h13l-2 1v2l9-1v1l-10 2h-6l4-1v-2h-7l-2 1v2l3 1-30 4-23 2h-46l-4-2-1 1-17-1-28-5-9-3-9-2-5-2-7-3 3-3z" fill="#C7C7D2"/>
<path transform="translate(1095,1092)" d="m0 0 7 6v2h2l3 3v2l4 2 9 10 2 9-2 1-11 1-8-3v-2l-9-1-6-8-7 2-3-2v-6h2l2-4 4-3h2v-2h2v-2l4-2z" fill="#141312"/>
<path transform="translate(1447,1698)" d="m0 0 4 1-9 3-12 2-7 2-32 3-39 1-14-1-9-3-1-4 24-1z" fill="#CCCCD6"/>
<path transform="translate(933,1152)" d="m0 0 2 1-1 2 4-1 5 1 2 1v2l4 4 7 11 1 5h2l5 8v2l4 2 3 5 6 7v2h3l-1 5-4 6-5 5-5 4-6 7-4 1 6-8 5-7-5-21-1-4-2-4-2-5h-1v-5l-5-2-1-5-5-2 1-3-9 2 3 3-3 1-8-3h-3l-1-5 1-1h-2l1-4 4 1v-2h2v-5z" fill="#D7D7DF"/>
<path transform="translate(1120,857)" d="m0 0 4 2-1 2 4 1 3 1-2 4-3 2h-5l-2 5-2-1-1-3-3 2-4 7-1 1h-5v2l-5 1-5-2-1-3h-2l-1-4h-4l-4-3 1 6h-2l-2-8 2-4 4-4h2v-2l3-1 6 2 1-2v2l15-1 5-1 5 1z" fill="#D1CFD9"/>
<path transform="translate(1347,1017)" d="m0 0 5 2 3 1-1 19-1 2h-3l-1 2h-2l1 10 2 2-2 2h-4v-2l-3 1-1 3-7 1-1 2h-5l-1-2h-3l-1 2-3-2 1-6-2-3h-3v2l-4 1v-3l3-7h5v2h4l2-4 3-3 2-6h-3l-1 4-4 4-2-1v-5l5-5 13-2 2-1h6v4l-6 9-2 4h-3v2l4-1 4 3 2 4v-8l3-4 1-7h3l-2-11-4-2zm-8 12v3l2 2 2-2v-3zm-1 5-5 2v5l4 1 2-2 1-6zm-1 13-2 4 3 3h5l-2-6zm-8 4-2 1v3h3z" fill="#CAC6D0"/>
<path transform="translate(936,628)" d="m0 0 12 1-3 2h-5v2l-6-1-4 2-2-1-1 6-4 2-2 2-2-1v2l-7 1h-3l-1 3-4 1-4 2-5 8 1 4-2 9-5 1-1 2v-2l-10 2h-2l-1-3-1 4 4 1-10 8-5 3-5-1 2-1v-2h-2l1-6 5-4 8-6-1-3 4-2 3-8 4 1 16-8 3-4 7-1 1-1 8-1 7-6 5-5 6-1zm-48 30-6 6-1 8 10-4-1-5 1-5z" fill="#BBB9C3"/>
<path transform="translate(1391,1251)" d="m0 0h94l8 4 4 7-1 2-4-2v-2l-9-2-3-1h-25l-25 1-7-1h-34l-11-2v-3z" fill="#FDFDFD"/>
<path transform="translate(723,974)" d="m0 0 4 1 3 5 2 7 2 6h2l1 4 2-2 2 4-1 3h3v3l4 1-5 1v-2l-3 2 1 4h2v-2l4-1-2 4-2 1 2 2-5 1v-2l-3 1v2l5 4 5 3 1 3-6-1-12-4-1-7h-6l-1-5 1-3 9-5h2l-1-3-10-2-2-4h2l-4-8-2-7 3 1v-4zm0 5 1 4 5 5v-5zm6 9v7h4l-1-5z" fill="#C0BDC7"/>
<path transform="translate(1107,1709)" d="m0 0h15v1l-21 2h-17l-53 2-82 2h-24l-23 1h-36l-7-1v-1l73-2z" fill="#159CB0"/>
<path transform="translate(921,1123)" d="m0 0 5 1 2 1v7l-2-4-3-3v7l-2 4 3 1v2l-9 1-1 2 2 1 1 3 6 1 1 3h3l1 2-2 2h2l-1 5h-4l-1 5-4 1-1-4-7-1-4-2h-6l-3-2v-2h8l1-2 7-1h-7l-4-1v-2l-4 1-3-2v-5l10-4 3-3h3l1 2 5-1 2-5z" fill="#CBC8D3"/>
<path transform="translate(387,1566)" d="m0 0 1 4-5 6-1 3-3 2-1 5-3 1-6 9v3l-3 2-2 4h-2l-6 10-2 1-1-1-2 1 4 2 1 4v3l-2 3-4 2h-3v-2l-6 1-1-1v-8l8-11 6-8 6-9 5-4 3 1-2 4-3 5 4-4 12-17 7-10z" fill="#E3E4EB"/>
<path transform="translate(735,1297)" d="m0 0h1v28l-3 16h3l5-2 7-4 13-3 5-1 1 3v9h-3l-9 2-11 2h-6v2l-11 1-6 3-5 5-5 9-1 5h-1l1-10 6-8 6-7 7-5 4-13 1-5v-20z" fill="#FEFEFE"/>
<path transform="translate(462,1522)" d="m0 0h5l5 1h2v2l6 1 4 2v2l4 2 4 10 1 14-3 7-3 2h-9l-10-4-4-4 14-1 1-1v-12l2-2 5 1v-6l-3-5-2-1-16-2-2-2-6-1v-1l5-1zm18 34 1 2z" fill="#E8E9EF"/>
<path transform="translate(412,1645)" d="m0 0h1v11l-1 4v7l1 5v10h-30l2-1-1-4v-13l2 2 1 6v9h4l-1-5-2-1 1-8 2-19h1l-1 19 16-1 1-2 1-11 1-3h2z" fill="#C1BEC8"/>
<path transform="translate(1114,833)" d="m0 0 5 1 16 4v2l2 1-11 1-2-1h-6l-1-2-18 6-12 3h-2v2l-9 1-2-1-3 5-1-2 2-4-3 1 1-5-3-1 6-2 8-1 7-3 13-2 12-2z" fill="#191817"/>
<path transform="translate(203,1702)" d="m0 0 10 1h4v2l-28 8-5 1v2l-8 4-4 4-4 5 1 2h-7v-13l-4-4 2-3 14-2 2 1h6l3-3 9-3z" fill="#A0C2D0"/>
<path transform="translate(416,1636)" d="m0 0h8l1 4-3 3v-4l-2 13-1 23h-4l5 2 1 5 17 2 11 3 6 1-1-2-7-2 1-2 7 2 7 3 9 6-2 1-10-2-16-2-46-2-4-2h36l-18-2-4-2h6l-2-17 6 1 1-18 1-7h-3l-1 4-2 4-3 1 1-7 4-6z" fill="#C6C7D3"/>
<path transform="translate(313,1653)" d="m0 0h1l1 5 3-2h5l3 5 5-5-1 12 2 10v6h-16l-2-2-2-13h11l-1-1-9-1z" fill="#D7D7DF"/>
<path transform="translate(454,1522)" d="m0 0 3 1-4 4h2v5l-3 1 2 16 5 9 5 4 1 3 3 1v2l6 1 2 1v2l-9-1-10-4-7-6-5-9-1-5v-13l4-8z" fill="#16B2CA"/>
<path transform="translate(260,1637)" d="m0 0 6 1-2 4-1 7-2 3-1 17-1 3-1 6h-3l-1-3 1 8 3 5 3 1v3l-4-1-4-5-1-3-6-2-1-4 6-3v-18l3-13 4-5z" fill="#DADAE2"/>
<path transform="translate(752,1031)" d="m0 0 2 4-2 3 4 2-1 4-3 2-2 6h2v3l3 1 2 4v3l-2 1 1 3 5 1 1-1 4 1v2l4-1 5 2h2l-1 3-7-1-1 3-6-1 1-3-7 1v2l-5-2v-2l-4-1-5-8v-5l1-1h6l-6-7 1-4 2 2 6-6-6-2 5-5zm-1 27 2 2v-2z" fill="#C9C6D1"/>
<path transform="translate(1115,1713)" d="m0 0h7l-3 2-6 1-27 2-45 2-51 1h-30l-48 1v-1l12-1 1-1 61-1h17l21-1h15l67-3z" fill="#E0E0E7"/>
<path transform="translate(366,1669)" d="m0 0h12l6 1 1 11 9 1-3 2-9 1 11 1-1 2-42 1 1-2 22-5h-6z" fill="#D2D0D9"/>
<path transform="translate(203,1720)" d="m0 0 4 1 16 7 15 5 9 2 10 1 33 1 1 3 3-1v2h-19l-4-2-1 1-17-1-28-5-9-3-9-2-5-2-7-3 3-3z" fill="#33B3C8"/>
<path transform="translate(1081,976)" d="m0 0h9l1 1-1 8-3 5-4 4-2 6-2 1v2h-2l-2 5-4 3 1-5 3-9 1-9-3-4-9 1-5 1-3-2 2-1 7-1 2-3 4 2 2-3z" fill="#141312"/>
<path transform="translate(1134,624)" d="m0 0h2v11l-2 6h8l1 5 6 3v2l9-5 2-3 8-1v3l-7 2 2 3 6 2 2 1 7 1 4 5-1 2-5-3-10-3h-3l-1-2-6 3-3 1 1-4 3-2h3l-2-2-4 2-2 7h-2l-3-3-7-4-5-1-7-5 4-5 1-9z" fill="#C2BFC9"/>
<path transform="translate(467,1663)" d="m0 0h2l3 9-1 9-4 4v-5h-19l-2 1v-12l7-1 2-2 5-1h7z" fill="#CBC8D3"/>
<path transform="translate(364,1648)" d="m0 0h1l-1 25 1 9-20 2-5-1-1-7v-4l4-1h14l1-3 1 13 1-1-1-8v-19h1v18h3l-1-8h-1v-7l2-1z" fill="#D2CFD7"/>
<path transform="translate(687,1580)" d="m0 0 2 1v8l-1 1-2 15-5 15-7 15-3 7-2-3 1-9 3-8 2-1 1 2-1-11 3-7h3l-1-6 6-17z" fill="#171615"/>
<path transform="translate(287,1636)" d="m0 0 5 2-2 4-2 9-1 22h-1v7l1 7-5-1-1-2-2-15-2 4 1-18 2-10 2-5h2l1-3zm-4 11v6h1l1-6zm-2 11-1 5 1 8h1l2-13z" fill="#BFBEC6"/>
<path transform="translate(683,1577)" d="m0 0 2 3-2 9-16 44-5 15-5 4-2 5-1-4 5-13 2-1v-7l1-2h2l3-10 9-24 4-12z" fill="#141515"/>
<path transform="translate(856,1134)" d="m0 0h2l2 10 2 1 1 5h3l-1 10 3-1-1 4-10-1-1 2v-2h-3l-3-6-2-1-2-11h3l3 6 1 3 1-3h2l-2-5 1-9z" fill="#D7D7DF"/>
<path transform="translate(735,1514)" d="m0 0 3 3 3 5v2l4 2 5 3 17-1 5-1 1 5-2-1-3 3-4 2h-4l-1 4-9-1-3-3-5-3-5-9-2-6z" fill="#D7D7DF"/>
<path transform="translate(364,1635)" d="m0 0h10v4l-5 2-1 7h-3l-1 7-3 1 2 2v13l-3 1 1 9h-2l-2-9v-3l-6 1-11-1v-2l17-2 2-18 2-9z" fill="#DEDEE5"/>
<path transform="translate(338,1635)" d="m0 0h8l2 1v2l-6 2-1 5h-2l-2 27 1 12h-4l-2-15v-17l-1-4 3-9z" fill="#CBCAD1"/>
<path transform="translate(405,1536)" d="m0 0h3l-1 5v1l2 1-1 8-1 7-3 3-5 1-1-2 2-6-2-5-4-1-7 2 1-5 5-4 6-4 3 1z" fill="#27B6CD"/>
<path transform="translate(675,1573)" d="m0 0 11 2v5h-3l-7 18-11 30-1 2h-2l1-7 6-17 10-26h-2l-1 6-4 10h-1l1-10 2-12z" fill="#17ABC1"/>
<path transform="translate(312,1636)" d="m0 0h9l-4 6-2 8h-1v-5h-2v10l-1 2-1 11h-4l-9 3h-9v-2l6-2h7l3 1 1-16 2-11z" fill="#CBC9D3"/>
<path transform="translate(285,1661)" d="m0 0h1l2 26h7l2 1v2h-14l-3 1-1 2-2-1-16-1v-2l-4-1-1-9 4 1 1 5h2v2l8-2 11-1 1 2 4 1-2-7zm-11 32h5l-1 2-7 1h-8v-1z" fill="#BFC5D0"/>
<path transform="translate(1030,606)" d="m0 0 10 1v3l4 2v5h-2v-2l-2-1 1-2-7-1v2l-3 1-5-4-1 2-5 1v-2h-3l-1 3-11 1-2 5-5 4-12-1-3 1h-9l2-2h-7l-4 1-4-2 2-1 20-1 5-1 5 2 6 1 6-8 10-4 8-1z" fill="#CBC8D3"/>
<path transform="translate(880,660)" d="m0 0h3v2h-3v2h-2l1 3h-3v2l4 1-2 2-4 1v3l4 1-10 8-5 3-5-1 2-1v-2h-2l1-6 5-4 8-6-1-3z" fill="#605E62"/>
<path transform="translate(1089,618)" d="m0 0 4 1 3 2 1 7 4 3 8-1 7-1 1 4 4 2 2 2-4 1 1 2h5l3-3 4-1-2 4-3 3-7 1-2-2-10-5-5-3h-5l-4-1-1-7 1-3-2-2-10-1v2h-3v-3z" fill="#CBC8D3"/>
<path transform="translate(1347,1017)" d="m0 0 5 2 3 1-1 19-1 2h-3l-1 2h-2l1 10 2 2-2 2h-4v-2l-3 1-1 3-7 1-1 2h-5l-1-2h2v-2h-2l1-3h3v-5l6 1 2 2 5 1-1-5 3 3v-8l3-4 1-7h3l-2-11-4-2z" fill="#CCC8D2"/>
<path transform="translate(729,925)" d="m0 0 4 1v5h-2l-2 7-3 7 2 2-1 5-2 4-4 1v5l6 2v3l2 1-4 2v2h-5l-3 6-2-4 2-4 2-2v-3l-3-1 2-10 4-5v-8l5-4z" fill="#C8C5D0"/>
<path transform="translate(1096,867)" d="m0 0h4l3 3 2-3 4 2 1 1v6l-3 4h-5v2l-5 1-5-2-2-3v-6l5-1z" fill="#211F1F"/>
<path transform="translate(932,1713)" d="m0 0h13l29 1v1l-25 1h-24l-23 1h-36l-7-1v-1z" fill="#1590A3"/>
<path transform="translate(375,1636)" d="m0 0 7 2 1 4-1 7h2v-11l3-2 3 1-4 13h-7l-2 1-10 1 1-11 4-2z" fill="#E8E9EF"/>
<path transform="translate(416,1636)" d="m0 0h8l1 4-3 3v-4l-2 13-1 23h-4l5 2 1 5h-5v2h-7l-2-2h6l-2-17 6 1 1-18 1-7h-3l-1 4-2 4-3 1 1-7 4-6z" fill="#CCC9D4"/>
<path transform="translate(1225,1191)" d="m0 0 5 2 2 7v15l-5 18-2 11-1 2h-10l1-2 6-1 1-5v-10l2-4h2l1-4-1-1 2-15-2-10z" fill="#D3CBD1"/>
<path transform="translate(1046,777)" d="m0 0h3v3l2 1v6l-6 8-5 3-5-1-1-2 1-2-2-1 6-9h2v-4z" fill="#EDD0C8"/>
<path transform="translate(1323,1070)" d="m0 0 4 2v7l2 3-1 3-9-3-10 5v3l-2 2-3 1-1 4-4-1 1-3 2-1 1-3 4-4-4 1v-7l2-1v2h2l1-2 1 2h5l1-3 5-3-2-2h5z" fill="#D6D6DE"/>
<path transform="translate(857,683)" d="m0 0 3 1-1 3 2 1-1 5h2v3h-2v3h-3l-2 4-4 1-1-1-1 3h-2l1-4h-2l2-5-2-5-6-1 1-2 12-1z" fill="#C4C1CB"/>
<path transform="translate(1120,857)" d="m0 0 4 2-1 2 4 1 3 1-2 4-3 2-8-1v-2l-12-2h-22l5-4h11l16-2 5 1z" fill="#141312"/>
<path transform="translate(326,1671)" d="m0 0h5l1 13h-16l-2-2-1-10z" fill="#CCC9D3"/>
<path transform="translate(422,1638)" d="m0 0 1 2-2 15-1 12h8v1h-7l1 3h9l2 2-1 1 3 2h-13v6l17 1 1-4 2 4 3 1v-5l2 2 1 3 7 2v2l-10-1-7-2-22-2v-1h5l-2-5-5-1 1-2 4 1-1-7 2-25z" fill="#1E1C1C"/>
<path transform="translate(1148,915)" d="m0 0 3 3 9 19 6 10 4 6 1 4v5l-3-2-8-16-7-8-6-10-1-5z" fill="#141312"/>
<path transform="translate(372,1729)" d="m0 0h13l-2 1v2l9-1v1l-10 2h-6l4-1v-2h-7l-2 1v2l3 1-20 3h-9l-3-1-6 1 5-5h7v-2l19-1z" fill="#27B4CA"/>
<path transform="translate(766,1054)" d="m0 0 3 2-1 5h5v2h4v2h-3l4 1-2-6 2-1v2l5 1 1-4 2 8 5-3 1 4 3-1 1 7 1 3-3 1h-2v5h-2l-1-10-3-1-2-5-7 4h-3l-2-1v-2l-4-2-2-7z" fill="#C3C1CB"/>
<path transform="translate(1303,984)" d="m0 0 1 2h3l1 3v1h2l2 2h2v8l-7 9-4 1-4-4-2-9 5-4-1-5zm0 10-2 6h8l-1-4zm5 0v2h3v-2z" fill="#C5C2CD"/>
<path transform="translate(772,1009)" d="m0 0 2 1-1 8h-3l1 5 1 2-4 4-2 5h-2l-1 7-4-1-2-2-3-2 7-1 2-6-12 1 1-3 9-3-1-2v-7l3 1v2h5l2-5z" fill="#C3C0CA"/>
<path transform="translate(916,1147)" d="m0 0h7l1 3h3l1 2-2 2h2l-1 5h-4l-1 5-4 1-1-4-7-1-4-2h-6l-3-2v-2h8l3-1h9l2 2 1-2 1-1-4-1z" fill="#D6D6DE"/>
<path transform="translate(716,873)" d="m0 0h2v2h-3l-1 7 1 10v4l-6 3-1 3h3v4h-2v-2l-4 3-1-1v-8l4-6v-4l-4-1 2-4h2l2-7z" fill="#CAC5CE"/>
<path transform="translate(1109,1189)" d="m0 0h7l3 2v7l-1 4-7 4-1 3h-3l-2-6v-8l3-3z" fill="#141312"/>
<path transform="translate(796,1080)" d="m0 0 3 3v4l5 1v2l-5-1-7 2-3-1 4 5 7 1 3-1v2h7v2h-6l-1 2-5-1 2 4-4-2-8-5-1-5-2-3 5-7zm-2 3v3h2l1 2-1-5z" fill="#CAC7D1"/>
<path transform="translate(856,1226)" d="m0 0 5 1 5 6-1 10v12l1 5h6v1h-11l-1-4v-15l-4-11z" fill="#CCCAD4"/>
<path transform="translate(306,1678)" d="m0 0 2 3 3 7-2 3-7 2-11 1h-12l1-3 5-2 12 1v-2l-9-1 1-3h17l-1-5zm-5 9 1 3h5l-3-3z" fill="#CCCBD5"/>
<path transform="translate(343,1616)" d="m0 0h6l6 2 1 4v3l-2 3-4 2h-3v-2l-6 1-1-1v-8z" fill="#D9D7DD"/>
<path transform="translate(743,1441)" d="m0 0 1 4-5 13-1 5v38h-3l-1-2v-11l-1-4v-8l4-20z" fill="#D0CED8"/>
<path transform="translate(1139,886)" d="m0 0h1l1 14 5 9v12l-5-2-4 2v-18l-1-9 2-6z" fill="#141312"/>
<path transform="translate(936,628)" d="m0 0 12 1-3 2h-5v2l-6-1-4 2-2-1-1 6-4 2-2 2-2-1v2l-7 1h-3l-1 3-4 1-4 2-4 4-3-3 6-5 2-3 7-1 1-1 8-1 7-6 5-5 6-1z" fill="#C1BEC9"/>
<path transform="translate(384,1677)" d="m0 0 1 4 9 1-3 2-9 1 11 1-1 2-42 1 1-2 22-5 1-2h10z" fill="#D7D6DF"/>
<path transform="translate(752,1031)" d="m0 0 2 4-2 3 4 2-1 4-3 2-2 6h2v3l3 1 2 4v3l-3 1-6-5h-4v2l2 2h-3l-1-1v-5l1-1h6l-6-7 1-4 2 2 6-6-6-2 5-5zm-1 27 2 2v-2z" fill="#CAC7D1"/>
<path transform="translate(723,974)" d="m0 0 4 1 3 5 2 7 1 4-3-2-1 5-3 1-5-5-3-5-2-7 3 1v-4zm0 5 1 4 5 5v-5z" fill="#AFADB6"/>
<path transform="translate(202,1751)" d="m0 0 19 1 30 2 48 1v1h-68l-24-1z" fill="#BFC6D2"/>
<path transform="translate(183,1713)" d="m0 0 3 1h-2v2l-8 4-4 4-4 5 1 2h-7v-11l4-4 5-1v2z" fill="#2DAEC4"/>
<path transform="translate(1086,1132)" d="m0 0h2l1 6-2 5-2 3-9 3-2-4 1-10 4-1h2z" fill="#141312"/>
<path transform="translate(703,935)" d="m0 0 4 1-2 1v6l4 1 1 6-5 9-4 5-4 7-2-4 2-5 6-10 3-1v-4l-9-1v-2l-3-1h7z" fill="#CAC6D0"/>
<path transform="translate(253,1652)" d="m0 0h1l1 22h3l1-2-1 6h-3l-1-3 1 8 3 5 3 1v3l-4-1-4-5-1-3-6-2-1-4 6-3v-18z" fill="#D7CCD1"/>
<path transform="translate(205,1731)" d="m0 0 9 1 27 6 11 2-1 3-15-2-18-4 4 2v1h-5v-2l-4-1-9-3z" fill="#98B5C1"/>
<path transform="translate(312,1645)" d="m0 0h2l-1 22h9l2 2-3 1-9-1 2 6 2 11-3-1-3-13v-3h-2l1 14-2-2-2-13 2-2 3 2v-11l1-2z" fill="#8F8D94"/>
<path transform="translate(421,1644)" d="m0 0h1l1 15-1 7 13-1 1-1 1-8h1v15l-2 4h-8l4-2-3-1h-7l-2-5v-12z" fill="#CDCAD5"/>
<path transform="translate(366,1645)" d="m0 0 1 3-1 10v9l1 5v10l10-1-4 2-13 3-17 2-1-2 10-3 13-1-2-10 2-25z" fill="#141312"/>
<path transform="translate(671,1580)" d="m0 0h2l-1 14 5-14h2l-3 10-9 24-4 12-1 6-2-2 2-9 6-25z" fill="#C2C6D2"/>
<path transform="translate(391,1644)" d="m0 0h2v23h-2v-12l-1 16-1 4 2 3v3h-4l-1-9v-20l1-2h2z" fill="#CDCCD4"/>
<path transform="translate(443,1636)" d="m0 0h8l-1 4-3 4 1-6-2 4-1 22-1 7-4 1v-6l2-1 1-12 1-2-2 1-2 3v-7l-1 5h-1l1-9 3-7zm0 8v6h1v-6z" fill="#B3B0B9"/>
<path transform="translate(387,1566)" d="m0 0 1 4-5 6-1 3-3 2-1 5-3 1-6 9v3l-3 2-2 4h-2l-6 9-5-5 2-2 3-1v3l1-2h2l2-5 13-18 8-11 4-6z" fill="#D2D1DA"/>
<path transform="translate(262,1676)" d="m0 0h12l1 2 5 2v5l-17 2-1-2zm11 5 4 1z" fill="#D8D8E0"/>
<path transform="translate(1043,607)" d="m0 0h9l7 2 4 5-2 1 2 5-1 2 3 1v3l6-3 5-4h2v2l-3 2v5l-2-1-1-2-3 2-9-1-1-3 1-4-1-3h-2l-2 2-1-3 1-4-6 2 1-3-7-1zm18 15 1 2z" fill="#C4C1CB"/>
<path transform="translate(1280,1067)" d="m0 0 4 4v2h3v2l5 2 1 2v8l-7 6-2 1h-6l1-2h6l-1-1h-8v-2h12v-2l-1-5-4-2-3-3h6 2l-7-4-5-1v-1h5z" fill="#272626"/>
<path transform="translate(173,1709)" d="m0 0 11 3 1-2 2 2-8 3-10 3v-2l-5 1-1 2-5-5 2-3z" fill="#BBCAD6"/>
<path transform="translate(1166,642)" d="m0 0 3 1-1 2-7 2 2 3 6 2 2 1 7 1 4 5-1 2-5-3-10-3h-3l-1-2-6 3-3 1 1-4 3-2h3l-2-2-2-1 4-5z" fill="#CBC8D3"/>
<path transform="translate(249,1736)" d="m0 0 41 1 1 3 3-1v2h-19l-4-2-1 1-17-1z" fill="#9FC2D0"/>
<path transform="translate(970,1061)" d="m0 0 2 3 2 8h-2l1 9 2 4h2l-1 8-3 4v5l-2-3-2-10 1-9v-7l-2-1 3-1v-3h-2l-1-4h2z" fill="#F0D2C8"/>
<path transform="translate(1203,1133)" d="m0 0 3 4 6 11v10h-3l-4-11h-2l-1-6-3-1v-3l-2-1 1-2z" fill="#D6D5DD"/>
<path transform="translate(1310,1024)" d="m0 0 4 1 4 3 1 4v-2h2l-1 5-5 2-1 3-4-1v-2l-3-1 1-9zm4 4 1 3zm-2 3-1 2h2z" fill="#C6C3CE"/>
<path transform="translate(391,1648)" d="m0 0h1l-1 19h11l-1 2h-9l2 13h-11l2-1-1-4v-13l2 2 1 6v9h4l-1-5-2-1 1-8z" fill="#141312"/>
<path transform="translate(752 1e3)" d="m0 0h4l1 3 2 1 1 10-5-1-4-1v-4h-2l-2 4h-3l3-4 2-6h3z" fill="#C3C0CA"/>
<path transform="translate(1e3 613)" d="m0 0m-1 1 1 3-6 7h-6l-7-1-3 1h-9l2-2h-7l-4 1-4-2 2-1 20-1 5-1 5 2 6 1z" fill="#CBC8D3"/>
<path transform="translate(405,1536)" d="m0 0h3l-1 5v1l2 1-1 8-1 7-3 3-4-1 5-5v-8l-1-3-8-2-9 6 2-4 10-7 3 1z" fill="#76CEE1"/>
<path transform="translate(1356,864)" d="m0 0 2 1 1 3 8 4 2 2v3h-3v-2l-7-1-2 6-4-2-2-3 1-5 3-3z" fill="#C9C5CF"/>
<path transform="translate(1021,920)" d="m0 0 2 1-1 7-4 5 1 7 3 4-6-2v-2h-2l-2-8v-3h3l2-8z" fill="#141312"/>
<path transform="translate(1254,710)" d="m0 0 5 5v3l-2 1 5 5 3 2 1 13-2 2-1-12-2-3-9-3-5 1-4-1 8-1 1-8v-3zm0 5 1 2z" fill="#C3C0CB"/>
<path transform="translate(960,1710)" d="m0 0h16l4 2-3 1-59 1 1-3h5 1l35 1z" fill="#D1CFD9"/>
<path transform="translate(357,1668)" d="m0 0 1 4v6l-18-1-1-5 4-1h14z" fill="#CAC9D4"/>
<path transform="translate(686,1576)" d="m0 0 5 5-1 12v6l-4 5 1-14 1-1v-8l-4 9-3 9 1 7-2 2-2-2-2-1 9-25z" fill="#B6C5D1"/>
<path transform="translate(1294,1183)" d="m0 0 2 1-7 6-2 3 1 2-2 1h-10l-5 2 1-3 11-7h3v-2z" fill="#D7D6DE"/>
<path transform="translate(977,1712)" d="m0 0h13l29 1v1l-24 1h-21l-29-1v-1z" fill="#158495"/>
<path transform="translate(447,1682)" d="m0 0 12 3 11 7 1 2-28-4-1-3 13 1-1-2-7-2z" fill="#C2C7D2"/>
<path transform="translate(1355,1702)" d="m0 0h28v2l-19 1h-30v-2z" fill="#157583"/>
<path transform="translate(755,1443)" d="m0 0 2 4 5 13 3 10 1 6-4-2-4-7-3-19z" fill="#D0CED8"/>
<path transform="translate(1346,835)" d="m0 0 7 2-1 5-2 1-2 5-1 7-4 1v-3-8l-1-3 3-2z" fill="#BAB6BE"/>
<path transform="translate(1330,1050)" d="m0 0 6 1 5 3-1 5-7 1-1 2h-5l-1-2h2v-2h-2l1-3h3z" fill="#D2C9D0"/>
<path transform="translate(673,1595)" d="m0 0 3 1-3 11-9 23h-2l1-7 6-17z" fill="#15A4BA"/>
<path transform="translate(390,1636)" d="m0 0h10l1 5-6 3-2 4v-4h-2l-1 7-2-1v-10z" fill="#E0E0E7"/>
<path transform="translate(312,1638)" d="m0 0 2 1v6h-2v10l-1 2-1 11-3-1v-12l3-14z" fill="#D8D8E0"/>
<path transform="translate(1268,756)" d="m0 0 11 1 6 3 1 3 3 1 1 2h5v2h-2l-1 6-1 4-4-2 3-1v-6l-3-1-4-5-6-2-6-3-1 3z" fill="#CBC8D3"/>
<path transform="translate(422,1676)" d="m0 0h16l1 7h-11l-6-1zm6 4 1 2h6v-2z" fill="#CBC8D3"/>
<path transform="translate(287,1636)" d="m0 0 5 2-2 4-2 9-1 22h-3v-13l2-20h-2l1-3z" fill="#C1BEC9"/>
<path transform="translate(260,1637)" d="m0 0 6 1-2 4-1 7-4 8h-1v-7l2-7h-2v2l-2 1-2 4v-7l4-5z" fill="#97959A"/>
<path transform="translate(359,1647)" d="m0 0h1v25l1 9h-2l-2-9v-3l-6 1-11-1v-2l17-2z" fill="#858489"/>
<path transform="translate(1148,1248)" d="m0 0h4l2 8-3 1h-18v-1l5-1v-2l9-2z" fill="#D5D5DD"/>
<path transform="translate(851,1212)" d="m0 0 2 3 3 4 9 8 2 5-1 3-5-6v-2l-5-1-1 4-4-10z" fill="#D8D8E0"/>
<path transform="translate(1110,832)" d="m0 0h4l-1 3-12 2-13 2-11 4h-5-3l4-3 10-2 9-3z" fill="#CBC8D3"/>
<path transform="translate(1399,1706)" d="m0 0h10v1l-18 2-39 1v-1l8-1 1-1z" fill="#E3E3EA"/>
<path transform="translate(656,1606)" d="m0 0 6 2v5l-3 7-3 2-3-1-1-6h2v-7z" fill="#16B2CA"/>
<path transform="translate(823,1353)" d="m0 0 9 3v3l-11 3-6-1 2-7 5 1z" fill="#D7D7DF"/>
<path transform="translate(333,1656)" d="m0 0 3 1 1 17 1 10h-4l-2-15z" fill="#D9D5DD"/>
<path transform="translate(412,1645)" d="m0 0h1v11l-1 4v7l1 5v10h-6l4-1-2-9v-6l-1-2 1-11 1-3h2z" fill="#A7A4AD"/>
<path transform="translate(770,813)" d="m0 0 1 4v2h-3l1 10-3-1-1 4h-2v2h-2l-1-8-2-1 2-1-1-3 2-1v2h3l1 3 2-4-2-1 4-6z" fill="#C5C2CC"/>
<path transform="translate(1287,752)" d="m0 0 2 2-1 2 4 1 3 6h2l3 4-2 4v-4l-3 1v-2l-5 1-2-7-4-2-3-3 5 1z" fill="#98959D"/>
<path transform="translate(288,1678)" d="m0 0h18l-1 3-8 1 4 3h-12l-1-1z" fill="#E6DADA"/>
<path transform="translate(1104,863)" d="m0 0 8 1 5 2v2h3l-1 5h-3l-1-3-3 2-2 3-2-6-5-1z" fill="#CDCAD4"/>
<path transform="translate(283,1661)" d="m0 0h1l2 19 1 7-5-1-1-2-1-16 2-2z" fill="#D0CED7"/>
<path transform="translate(894,1147)" d="m0 0 8 1v2h12l1 2h-9l-1 3-10-1-4-3v-2h3z" fill="#8D8B91"/>
<path transform="translate(285,1661)" d="m0 0h1l2 26h7l2 1v2h-15l-6-1v-1h5l1-4 1 2 4 1-2-7z" fill="#141312"/>
<path transform="translate(765,1378)" d="m0 0 4 1-2 4-3 1-2 5-10 1v-2l5-5z" fill="#D7D7DF"/>
<path transform="translate(365,1658)" d="m0 0h2l1 4 4-2h4l1 4 5 1v-5h1v6l-7 1h-11z" fill="#E5E5EC"/>
<path transform="translate(716,926)" d="m0 0 4 1-2 2v7l-5 5-1 2-3-1-1-8 6-3zm-2 7-1 2h2z" fill="#CBC8D2"/>
<path transform="translate(1087,858)" d="m0 0 7 2 1-2v2l2 1h-10l-2 2 1 5-4 1v2h-2l1 6h-2l-2-8 2-4 4-4h2v-2z" fill="#CCC8D2"/>
<path transform="translate(439,1679)" d="m0 0 3 4 3 1v-5l2 2 1 3 7 2v2l-10-1-7-2-22-2v-1l6-1 17 2z" fill="#141312"/>
<path transform="translate(416,1636)" d="m0 0h8l1 4-3 3v-4l-2 6-1-4h-3l-1 4-2 4-3 1 1-7 4-6z" fill="#D2D0DA"/>
<path transform="translate(932,1713)" d="m0 0h13l29 1v1l-25 1h-21l-1-2z" fill="#16B2CA"/>
<path transform="translate(873,676)" d="m0 0h5l-5 5-5 4-5 3-2-1 1-7 3-3 2 1 3-1z" fill="#BFBCC7"/>
<path transform="translate(1065,844)" d="m0 0 5 1v4h2l-2 5v3l-4 1v-2l-6-1 1-2 2 1v-5z" fill="#B7AFB4"/>
<path transform="translate(378,1675)" d="m0 0 6 2v3l-10 1-7 1v-5l3-1z" fill="#EDDBD8"/>
<path transform="translate(1126,1141)" d="m0 0h3v2h2l2 7v7l-4-2v-2h-2l-3-9z" fill="#D7D7DF"/>
<path transform="translate(450,1671)" d="m0 0h11l5 1v3h-3v-2l-4 2h3v2h-14v-5z" fill="#161514"/>
<path transform="translate(332,1650)" d="m0 0h1v21l2 15-2-1-3-14v-3l-2-1h2v-8z" fill="#69676C"/>
<path transform="translate(928,1137)" d="m0 0 5 3 2 1-1 2-9-1-3 1-1 2h-5l-2-2-1-2 2-3v2l12-2z" fill="#1D1C1C"/>
<path transform="translate(1266,739)" d="m0 0 1 3 10 2 2 1 1 3 2 2h-2l-1 2v-3h-8l-5-2-1 2-1-2 2-3v-1z" fill="#CBC8D3"/>
<path transform="translate(1276,748)" d="m0 0 7 3 4 4-1 2-1-1h-8l-7-1 1-5z" fill="#403F40"/>
<path transform="translate(312,1636)" d="m0 0h9l-4 6-2 8h-1l-1-11-2 2-3 9h-1v-9z" fill="#A7A5AC"/>
<path transform="translate(758,821)" d="m0 0 3 3-1 2 2 5-2 7-4 2-1-2 1-2h-2v-2h3v-2l-3 1-1-2 3-1 1-3v-3z" fill="#2F2E2F"/>
<path transform="translate(872,1260)" d="m0 0h14v3l-4 1-2-1v2h-12l2-4z" fill="#D3D2DB"/>
<path transform="translate(1298,1055)" d="m0 0 1 3-1 2 2 1-1 3-5 2-2-2-1 3v-2h-2l-2 2 1-5 1-3 6-1z" fill="#141312"/>
<path transform="translate(683,1577)" d="m0 0 2 3-2 9-4 11-3 1 1-9z" fill="#142526"/>
<path transform="translate(951,1234)" d="m0 0h2l-1 4-1 1 1 10 3 6v3l4 1-3 1-5-5-4-12v-5z" fill="#CDCAD5"/>
<path transform="translate(880,660)" d="m0 0h3v2h-3v2h-2l1 3h-3v2l4 1-2 2-4 1-2 3-1-4-3-1 4-4-1-2z" fill="#7B787E"/>
<path transform="translate(719,890)" d="m0 0h2l3 7v3l-4 8-3 2-1-7 3-1v-9l-2-1z" fill="#CCC8D2"/>
<path transform="translate(353,1605)" d="m0 0v3 2l3 5-2 1-1-1-2 1-1 2-6-2 3-6z" fill="#E1E2E9"/>
<path transform="translate(1346,1253)" d="m0 0h22l8 1v1l-17 1-15-1z" fill="#FEFEFE"/>
<path transform="translate(925,1109)" d="m0 0 2 1 1 7v3l-7-1-5-3v-4l4 4 1-4 4 1z" fill="#B5B2BC"/>
<path transform="translate(1081,744)" d="m0 0h9v2l-2 1 6 2v3h-2l-2 2-2-2v-2l-5-2-1-2-1 4-5 1 2-4z" fill="#CDC8D2"/>
<path transform="translate(258,1659)" d="m0 0h1l3 26-2-2-1-3-3-1 1 8-3-4-1-9 2 1v3h3z" fill="#141312"/>
<path transform="translate(330,1679)" d="m0 0 2 2v3h-16l-1-4z" fill="#F1F2F5"/>
<path transform="translate(861,1235)" d="m0 0 3 3 1 17 1 5h6v1h-11z" fill="#AFACB5"/>
<path transform="translate(1249,731)" d="m0 0h6l2 2-1 4-1-4-6 1-1 2 4 2 1 4v4h-2l-1-5-2-1 1-2-6-2 1-4z" fill="#CBC8D3"/>
<path transform="translate(173,1709)" d="m0 0 8 2-3 2-15 2-3 1-2-2 2-3z" fill="#8897A0"/>
<path transform="translate(364,1635)" d="m0 0h10v4l-5 2-2 2-1-4h-3l-2 8-1-4 2-6z" fill="#98969D"/>
<path transform="translate(931,1162)" d="m0 0 2 2 3 2v3l3 2-3 1-8-3h-3l-1-5z" fill="#DBDCE3"/>
<path transform="translate(909,1259)" d="m0 0h11v3l-16 1h-16v-2h21z" fill="#D5D5DD"/>
<path transform="translate(349,1679)" d="m0 0h9v4l-17 1-1-4z" fill="#F0F1F4"/>
<path transform="translate(398,1676)" d="m0 0h2v2h8l2 1v2l-3 1h-13l-1-5z" fill="#D8CCD0"/>
<path transform="translate(343,1616)" d="m0 0 3 1v3h2v5l-3 2-4-1-1-6z" fill="#F3D7CF"/>
<path transform="translate(1117,838)" d="m0 0 3 2h5l4 3h-13l-4 1-1-1-11 3-3-1 10-4z" fill="#C8C3CD"/>
<path transform="translate(858,1238)" d="m0 0 3 4v18h-9l5-4z" fill="#E9EAF0"/>
<path transform="translate(1347,977)" d="m0 0h2l1 3 4 1-1 5-7 3-1-8z" fill="#B6B3BC"/>
<path transform="translate(403,1533)" d="m0 0h7l1 1v7l-4 1-1 3v-4l2-5-7 3-1-3z" fill="#C9CCD7"/>
<path transform="translate(1225,1191)" d="m0 0 5 2 2 7v15h-1l-1-11h-2l-2-10z" fill="#D4CDD3"/>
<path transform="translate(703,935)" d="m0 0 4 1-2 1v6l3 2v3l-11-2v-2l-3-1h7z" fill="#C0BCC5"/>
<path transform="translate(360,1685)" d="m0 0 9 1 23 1v1l-42 1 1-2z" fill="#CCCCD7"/>
<path transform="translate(338,1658)" d="m0 0h1v8h5l-4 1v2h17v2l-18 1-1-5z" fill="#DCDBE2"/>
<path transform="translate(389,1656)" d="m0 0h1v15l-1 4 2 3v3h-4l-1-15h3z" fill="#D2CFD8"/>
<path transform="translate(339,1645)" d="m0 0h1l-1 22 1 14-1 4-3-11 1-17z" fill="#141312"/>
<path transform="translate(734,976)" d="m0 0 2 1 2 4 1 7v3l-5-2v-5h-2l1-7z" fill="#CBC8D3"/>
<path transform="translate(1300,795)" d="m0 0 11 1v2l4 1-5 8h-2l-2 4v-3l3-6 2-2-7-3-4 1z" fill="#141312"/>
<path transform="translate(1200,672)" d="m0 0h2v2h6l2 5-1 5 2 4-4-1-2-9v-2l-7-2z" fill="#CBC8D3"/>
<path transform="translate(676,1606)" d="m0 0 1 3-1 7 1 4-1 4-2-2-3 4-1-4z" fill="#B7C5D2"/>
<path transform="translate(721,888)" d="m0 0 1 2 4-1v2h-2v3h2l2-4 1 5-3 7-3 1 1-5-3-5z" fill="#141312"/>
<path transform="translate(1166,651)" d="m0 0 5 2 7 1 4 5-1 2-5-3-10-3h-3v-2h3z" fill="#C7C4CF"/>
<path transform="translate(963,620)" d="m0 0h23l-3 4h-9l2-2h-7l-4 1-4-2z" fill="#B4B1BA"/>
<path transform="translate(343,1676)" d="m0 0 14 1v3l-18 1v-4z" fill="#F2D5CD"/>
<path transform="translate(384,1677)" d="m0 0 1 4 9 1-3 2h-21l4-4h10z" fill="#CDCAD5"/>
<path transform="translate(383,1664)" d="m0 0h1v6l-3 1-3-1-12-1v-2l17-1z" fill="#B4B2BB"/>
<path transform="translate(910,655)" d="m0 0 4 1v2h-2v3h-2l-2 5-7 2 1-6 3-1h3z" fill="#CBC8D3"/>
<path transform="translate(287,1668)" d="m0 0h5l-4 1v2l12-2h5v3l-6 1h-12z" fill="#DCDCE3"/>
<path transform="translate(748,981)" d="m0 0 2 1v7l-2 3-4-1v-2h-2v4h-2l1-6 4-1 1-3h2z" fill="#CBC8D3"/>
<path transform="translate(1229,1204)" d="m0 0 2 4v12l-2 2-3-4 2-13z" fill="#B6B1B8"/>
<path transform="translate(909,1113)" d="m0 0 2 4 2 5 5 1 1 6-5-1 1-3-4-1-3-6z" fill="#CBC8D3"/>
<path transform="translate(849,1412)" d="m0 0h6l1 7h-2l-2-3h-7l-5 2 1-4z" fill="#D7D7DF"/>
<path transform="translate(1153,860)" d="m0 0h2l-2 8v13h-3v-15z" fill="#141312"/>
<path transform="translate(336,1636)" d="m0 0h5v2l-4 2-3 15-3-3 1-6 2-7z" fill="#A6A5AC"/>
<path transform="translate(312,1638)" d="m0 0 2 1v6h-2l-1 9-3-1 1-9z" fill="#E6E7ED"/>
<path transform="translate(727,1006)" d="m0 0 6 3 1 2-2 1 2 1v2h-4v-2l-7-1 1-4z" fill="#141312"/>
<path transform="translate(753,854)" d="m0 0 2 1v5l-4 3-4-1-2-3z" fill="#CBC8D3"/>
<path transform="translate(169,1729)" d="m0 0h5l1 4 2 1v2h2l1 4h-6v-3h-2l-1-6z" fill="#65B5C6"/>
<path transform="translate(706 1e3)" d="m0 0 9 2 1 1v5l-2 1-7-5z" fill="#B9B5BE"/>
<path transform="translate(968,944)" d="m0 0 4 2-1 11h-2l-2-3v-9z" fill="#E8D2CE"/>
<path transform="translate(1072,647)" d="m0 0 4 3-1-3 5 2v3l-3 1v-2l-3 1v2l-4 1v-2h-5v-2l6-2z" fill="#CBC8D3"/>
<path transform="translate(308,1669)" d="m0 0h2l4 16h-4l-2-9z" fill="#D9D7DF"/>
<path transform="translate(359,1647)" d="m0 0h1v25l1 9h-2l-2-9 1-20z" fill="#141312"/>
<path transform="translate(688,1601)" d="m0 0 1 3-4 13-3 3-1-2 4-13z" fill="#C3C7D2"/>
<path transform="translate(689,1581)" d="m0 0h2l-1 12v6l-4 5 1-14 1-1z" fill="#7DBECF"/>
<path transform="translate(734,1484)" d="m0 0 2 3 2 5v9h-3l-1-2z" fill="#D7D7DF"/>
<path transform="translate(1096,1257)" d="m0 0 7 1-3 2-7 1h-3l-2-1h-9l-7-1v-1z" fill="#E9EAF0"/>
<path transform="translate(274,1738)" d="m0 0h11l5 2 1-2v2l3-1v2h-19l-2-2z" fill="#16B2CA"/>
<path transform="translate(258,1643)" d="m0 0h2l-3 21h-1l-1-18 3-1z" fill="#F8F8F9"/>
<path transform="translate(390,1636)" d="m0 0h10l-2 4-5 2v-3l-3 3h-2z" fill="#A8A5AE"/>
<path transform="translate(345,1616)" d="m0 0 5 1 2 1-1 8-6 1 1-2h2v-5h-2z" fill="#CBC8D3"/>
<path transform="translate(1086,865)" d="m0 0 3 1 1 5h-2l-1 4-4-2-1-4 4-1z" fill="#D7D5DD"/>
<path transform="translate(760,857)" d="m0 0 1 2-2 7-2 4-1-3-4 4v-3l-1-1v-2h2v-2l3-1 1-1v-2z" fill="#CBC8D3"/>
<path transform="translate(262,1676)" d="m0 0h12l1 2 3 2-15 1z" fill="#F3D6CD"/>
<path transform="translate(333,1656)" d="m0 0 3 1 1 15-5-1z" fill="#E4E4EA"/>
<path transform="translate(970,1061)" d="m0 0 2 3 2 8h-2v10l-2-2v-7l-2-1 3-1v-3h-2l-1-4h2z" fill="#F4D6CD"/>
<path transform="translate(1074,849)" d="m0 0 5 1 4-1 1 3-7 2-6 2 2-6z" fill="#CAC5CE"/>
<path transform="translate(387,1636)" d="m0 0 3 1-4 13-3-1 1-11z" fill="#E0E0E7"/>
<path transform="translate(372,1729)" d="m0 0h13l-2 1v2l9-1v1l-10 2h-6l4-1v-2h-13v-1z" fill="#50B9CC"/>
<path transform="translate(319,1676)" d="m0 0h8l2 3-2 1-10 1-2-1-1 2v-4l5-1z" fill="#F3D5CD"/>
<path transform="translate(410,1664)" d="m0 0 2 3 1 5v10h-6l4-1-2-9z" fill="#141312"/>
<path transform="translate(391,1648)" d="m0 0h1l-1 19h11l-1 2h-9l-2 1-1-3z" fill="#1C1B1A"/>
<path transform="translate(443,1638)" d="m0 0h3l-1 7h-1v6l-2 1-2 3 1-11z" fill="#D2D0DA"/>
<path transform="translate(732,1019)" d="m0 0 4 1 10 4 1 3-6-1-9-5z" fill="#4F4D50"/>
<path transform="translate(901,645)" d="m0 0 4 1-1 3-4 2-4 4-3-3z" fill="#CBC8D3"/>
<path transform="translate(312,1669)" d="m0 0h18l-1 3h-16z" fill="#EAEAEF"/>
<path transform="translate(280,1653)" d="m0 0h1v15l-2 1-2 4 1-18z" fill="#CECBD6"/>
<path transform="translate(253,1652)" d="m0 0h1v15l-3 1v-12z" fill="#B6B3BC"/>
<path transform="translate(660,1630)" d="m0 0 2 4-3 10-3 3 1-9z" fill="#79BECE"/>
<path transform="translate(1258,1226)" d="m0 0h2l1 6-1 8-4-5 1-7z" fill="#CDCAD5"/>
<path transform="translate(1015,609)" d="m0 0 4 1-2 1-1 3-11 1 1-2 5-3z" fill="#C2BFC9"/>
<path transform="translate(294,1667)" d="m0 0h7l4 2-8 2h-9v-2z" fill="#A9A7AF"/>
<path transform="translate(416,1636)" d="m0 0h8l1 4-3 3v-4l-2 4v-4h-5l-1 3 1-5z" fill="#ACA9B2"/>
<path transform="translate(363,1600)" d="m0 0v3l-7 11-5-5 2-2 3-1v3l1-2h2l2-5z" fill="#CDCBD5"/>
<path transform="translate(1350,1032)" d="m0 0h3l1 4-1 5h-3l-1 2-3-1 2-2 1-7z" fill="#CEC9D2"/>
<path transform="translate(1313,872)" d="m0 0 4 1v7h2l5 5v3l-3-1v-2l-3-1v-3h-2l-1 2-1-4v-4z" fill="#CBC8D3"/>
<path transform="translate(311,1663)" d="m0 0h1l3 19 1 4-3-1-2-7z" fill="#141312"/>
<path transform="translate(456,1547)" d="m0 0 4 4 1 4 3 1 3 5-1 2-7-7-3-5z" fill="#BACEDA"/>
<path transform="translate(859,1236)" d="m0 0 1 2h2v22l-2-3v-15z" fill="#D6D6DE"/>
<path transform="translate(970,1216)" d="m0 0 2 1-4 5-8 7-3 3-2-1 8-9 5-4h2z" fill="#CBC8D3"/>
<path transform="translate(1340,1027)" d="m0 0h6v4l-6 9-1-4 4-7-5 1v-2z" fill="#CFC9D2"/>
<path transform="translate(1243,1015)" d="m0 0 1 2h2v2l2 1-1 2-8-1v-4z" fill="#C6C3CE"/>
<path transform="translate(869,875)" d="m0 0h1l-1 8-2 2-3-1-1-4 1-3h4z" fill="#C1BEC9"/>
<path transform="translate(1087,858)" d="m0 0 7 2 1-2v2l2 1h-10l-4 2v3l-6 3 2-4 4-4h2v-2z" fill="#87848A"/>
<path transform="translate(203,1702)" d="m0 0 3 4-5 1-1 1h-3v-2l-6 1v-2z" fill="#5F7178"/>
<path transform="translate(1e3 864)" d="m0 0 4 2 3 3-3 3-4-5-3 3-2-3z" fill="#C9C4CD"/>
<path transform="translate(1257,721)" d="m0 0 8 5 1 13-2 2-1-12-2-3-5-2z" fill="#CBC8D3"/>
<path transform="translate(743,1058)" d="m0 0h5l6 5-3 1h-6l-2-3z" fill="#1D1C1C"/>
<path transform="translate(429,1671)" d="m0 0 4 2-1 1 3 2h-12v-4z" fill="#141312"/>
<path transform="translate(1318,1169)" d="m0 0 2 2-11 6-4 3-2-1 4-4z" fill="#D7D7DF"/>
<path transform="translate(1307,1086)" d="m0 0 2 1v3l-2 2-3 1-1 4-4-1 1-3 2-1 1-3z" fill="#D7D7DF"/>
<path transform="translate(1189,681)" d="m0 0 7 2 5 3 1 4-7-3-2-2-1-2-3-1z" fill="#CBC8D3"/>
<path transform="translate(282,1679)" d="m0 0 4 1 1 7-5-1-1-6z" fill="#D7D5DC"/>
<path transform="translate(360,1656)" d="m0 0 3 2v13h-3z" fill="#E9EAEF"/>
<path transform="translate(262,1642)" d="m0 0h1v7l-4 8h-1v-7l2-5h2z" fill="#ADABB3"/>
<path transform="translate(1234,696)" d="m0 0 4 3 2 7-3 1v6 3l-3-4 1-7 2-2v-3h-3z" fill="#CBC8D3"/>
<path transform="translate(936,633)" d="m0 0 3 3 1 3-2 2h-5v-2l-2-1 2-1v-3z" fill="#CCC8D2"/>
<path transform="translate(757,1402)" d="m0 0 1 3-9 14-1-3 7-12h2z" fill="#D4D4DC"/>
<path transform="translate(1110,832)" d="m0 0h4l-1 3-12 2-2-2 6-2z" fill="#CBC4CC"/>
<path transform="translate(1124,745)" d="m0 0 6 3-1 2-4 2v2l-4-1z" fill="#D7CCD1"/>
<path transform="translate(185,1707)" d="m0 0h5l2 4-3 2-3-1-2-3zm-3 3h2v2h-2z" fill="#75A6B3"/>
<path transform="translate(414,1679)" d="m0 0h7v3h-5v2h-7l-2-2 6-1z" fill="#CFCED7"/>
<path transform="translate(256,1679)" d="m0 0 4 1 2 7-3 1-2-1z" fill="#E5E1E6"/>
<path transform="translate(1267,1043)" d="m0 0 3 3-1 3 3 1v2h-6l-3-4h3l-1-3z" fill="#CBC8D3"/>
<path transform="translate(1134,624)" d="m0 0h2v11l-2 5-2-4z" fill="#CBC8D3"/>
<path transform="translate(235,1734)" d="m0 0h8l9 3v1l-11-1-6-1z" fill="#47B8CC"/>
<path transform="translate(184,1710)" d="m0 0 3 2-8 3-6 1v-3l9-2 2 1z" fill="#9FBDCB"/>
<path transform="translate(441,1676)" d="m0 0h3l1 2v6l-4-1-1-6z" fill="#D1CFD9"/>
<path transform="translate(1202,1264)" d="m0 0h8l1 2-12 2-2-3z" fill="#E9EAF0"/>
<path transform="translate(871,671)" d="m0 0 2 6-6 3-2-1 1-4h2v-3z" fill="#141312"/>
<path transform="translate(878,655)" d="m0 0 7 1-3 5-6 2z" fill="#CBC8D3"/>
<path transform="translate(1235,1705)" d="m0 0h8l1 3-1 1-9-1z" fill="#CFCDD7"/>
<path transform="translate(253,1680)" d="m0 0 2 3 3 5 3 1v3l-4-1-4-5-1-5z" fill="#CECBD6"/>
<path transform="translate(253,1674)" d="m0 0 2 1v3h3l1-3v4h-3l1 8-3-4z" fill="#646266"/>
<path transform="translate(714,1024)" d="m0 0 10 2-1 4-9-3z" fill="#CBC8D3"/>
<path transform="translate(1230,1015)" d="m0 0 1 2 4 1v4h-8l2-5z" fill="#CBC8D3"/>
<path transform="translate(1243,1007)" d="m0 0 3 1-2 6-4 2-2-6zm-1 2-1 3 3 1v-4z" fill="#C5C2CC"/>
<path transform="translate(729,925)" d="m0 0 4 1v5h-2l-1 5h-2z" fill="#CBC8D3"/>
<path transform="translate(1097,857)" d="m0 0 5 1 4-1h9l-1 2-16 2z" fill="#CDC8D2"/>
<path transform="translate(1046,762)" d="m0 0 4 1 1 8h-3l-2-4z" fill="#CCC8D2"/>
<path transform="translate(936,628)" d="m0 0 12 1-3 2h-5v2l-8-1z" fill="#CBC8D3"/>
<path transform="translate(1076,619)" d="m0 0h2v2l-3 2v5l-2-1-1-2-3 2h-5l1-2 5-1z" fill="#C5C2CC"/>
<path transform="translate(478,1704)" d="m0 0 4 2-4 2-5 3h-2v-4z" fill="#43757F"/>
<path transform="translate(204,1703)" d="m0 0h13v2l-9 2-5-2z" fill="#68B3C3"/>
<path transform="translate(365,1588)" d="m0 0 3 1-2 4-2 2h-3l-1-3z" fill="#E0E0E7"/>
<path transform="translate(999,891)" d="m0 0h5l2 3-3 1-1 2-4-2z" fill="#CBC8D3"/>
<path transform="translate(1292,759)" d="m0 0 8 8-2 4v-4l-3 1v-2h-2l-2-5z" fill="#141312"/>
<path transform="translate(1136,758)" d="m0 0 2 1 3 7h-2l-1 2h-2v-4l-2-1 1-4z" fill="#CDC8D2"/>
<path transform="translate(243,1739)" d="m0 0 9 1-1 3-15-2v-1z" fill="#16B2CA"/>
<path transform="translate(1140,923)" d="m0 0h2l6 12-4-2-2-5-2-1z" fill="#F4F5F7"/>
<path transform="translate(306,1666)" d="m0 0h1l2 10v7l-2-2-2-13z" fill="#141312"/>
<path transform="translate(372,1585)" d="m0 0v3l-8 11-2-1 8-11z" fill="#E9EAF0"/>
<path transform="translate(455,1527)" d="m0 0h1v15h-2l-2-4v-5l2-1z" fill="#8CCEDF"/>
<path transform="translate(949,1248)" d="m0 0 3 1 3 6v3l4 1-3 1-5-5z" fill="#D1CAD2"/>
<path transform="translate(722,991)" d="m0 0 4 2 1 5-5-1-2-4h2z" fill="#CBC8D3"/>
<path transform="translate(986,934)" d="m0 0 5 1-1 5-4-1-1-4z" fill="#141312"/>
<path transform="translate(450,1512)" d="m0 0 4 1-8 4-4 4h-2l2-4z" fill="#E9EAF0"/>
<path transform="translate(758,1464)" d="m0 0 4 5 3 1 1 6-4-2-4-7z" fill="#D7D7DF"/>
<path transform="translate(784,1262)" d="m0 0h4l-2 4-7 3 1-4z" fill="#E4E5EB"/>
<path transform="translate(1065,844)" d="m0 0 5 1-1 7h-2l-1 2v-5z" fill="#7C7A80"/>
<path transform="translate(1280,755)" d="m0 0 8 5 1 4-4-1-1-3-5-2z" fill="#211F1F"/>
<path transform="translate(679,1591)" d="m0 0 2 1-2 8-3 1 1-8z" fill="#14363A"/>
<path transform="translate(1069,1258)" d="m0 0 9 2v3h-8l-3-3z" fill="#E9EAF0"/>
<path transform="translate(1280,1067)" d="m0 0 4 4v2h3l1 3-12-4v-1h5z" fill="#141312"/>
<path transform="translate(764,850)" d="m0 0 3 1-2 11-2-1v-8z" fill="#CFC9D2"/>
<path transform="translate(1092,846)" d="m0 0h5l-3 3-7 1-2 1v-3z" fill="#CCC8D2"/>
<path transform="translate(355,1688)" d="m0 0 4 1-1 2-18-1v-1z" fill="#1593A6"/>
<path transform="translate(262,1685)" d="m0 0 1 2 10-1-3 2h-7v2l-6-2 4-1z" fill="#1B2020"/>
<path transform="translate(286,1639)" d="m0 0 1 4-2 9-1-4-1-3 1-5z" fill="#E6E6ED"/>
<path transform="translate(287,1636)" d="m0 0 5 2-2 4h-2l-2-2h-2l1-3z" fill="#B2AFB6"/>
<path transform="translate(735,1514)" d="m0 0 3 3 2 9-1-2h-2l-2-6z" fill="#D0CED8"/>
<path transform="translate(1048,1258)" d="m0 0 4 1-1 3h-8l-3-2z" fill="#E8E9EF"/>
<path transform="translate(1347 1e3)" d="m0 0 2 1v8l-3 1v-8z" fill="#CBC8D3"/>
<path transform="translate(1352,981)" d="m0 0h2l-1 5-7 3 1-3z" fill="#141312"/>
<path transform="translate(1112,840)" d="m0 0m-5 1h5l-1 2-11 3-3-1z" fill="#CBC8D3"/>
<path transform="translate(705,924)" d="m0 0 2 1-1 7h-3v-6z" fill="#CCC8D2"/>
<path transform="translate(1354,1047)" d="m0 0 5 2-2 4h-4z" fill="#D6CCD1"/>
<path transform="translate(1356,944)" d="m0 0 3 1 2 6-4-2-2-4z" fill="#CBC8D3"/>
<path transform="translate(1279,734)" d="m0 0h3l1 3-2 3-1-3h-2z" fill="#CBC8D3"/>
<path transform="translate(1147,634)" d="m0 0h2v4l-4 1-1-3h3z" fill="#CBC8D3"/>
<path transform="translate(714,1019)" d="m0 0 2 1-1 3-5-1v-2z" fill="#CEC9D2"/>
<path transform="translate(1351,915)" d="m0 0 3 1-3 4h-2z" fill="#CBC8D3"/>
<path transform="translate(1371,997)" d="m0 0 2 1v5l-2-1-1-4z" fill="#D6CCD1"/>
<path transform="translate(1261,718)" d="m0 0 4 1v3l-3-1z" fill="#CBC8D3"/>
<path transform="translate(1329,839)" d="m0 0 3 1-1 3h-2z" fill="#CBC8D3"/>
<path transform="translate(1367,1046)" d="m0 0h2l-1 3h-3v-2z" fill="#D9CDD1"/>
<path transform="translate(1267,730)" d="m0 0 4 1v2h-3z" fill="#CBC8D3"/>
<path transform="translate(701 1e3)" d="m0 0 3 2-4-1z" fill="#CBC8D3"/>
<path transform="translate(692,922)" d="m0 0 1 3h-2z" fill="#CBC8D3"/>
<path transform="translate(1352,1042)" d="m0 0h2v2h-2z" fill="#D5CBD1"/>
<path transform="translate(1358,1031)" d="m0 0 2 2-2 1z" fill="#E0CFD0"/>
<path transform="translate(1378,993)" d="m0 0 2 2-2 1z" fill="#D5CBD1"/>
<path transform="translate(758,1073)" d="m0 0 2 2h-2z" fill="#CBC8D3"/>
<path transform="translate(743,1040)" d="m0 0" fill="#CBC8D3"/>
<path transform="translate(1391 1e3)" d="m0 0h2l-1 2z" fill="#CBC8D3"/>
<path transform="translate(1376,989)" d="m0 0" fill="#CBC8D3"/>
<path transform="translate(698,918)" d="m0 0 2 1-2 1z" fill="#CBC8D3"/>
<path transform="translate(1324,836)" d="m0 0h2l-1 2z" fill="#CBC8D3"/>
<path transform="translate(1248,707)" d="m0 0 3 1z" fill="#CBC8D3"/>
<path transform="translate(1245,705)" d="m0 0 2 1-2 1z" fill="#CBC8D3"/>
<path transform="translate(804,1103)" d="m0 0 2 1z" fill="#CBC8D3"/>
<path transform="translate(1360,1047)" d="m0 0 2 1z" fill="#CBC8D3"/>
<path transform="translate(709 1e3)" d="m0 0" fill="#CBC8D3"/>
<path transform="translate(1365 1e3)" d="m0 0 2 1z" fill="#CBC8D3"/>
<path transform="translate(1367,976)" d="m0 0" fill="#CBC8D3"/>
<path transform="translate(694,976)" d="m0 0 2 1z" fill="#CBC8D3"/>
<path transform="translate(1354,932)" d="m0 0" fill="#CBC8D3"/>
<path transform="translate(1354,860)" d="m0 0" fill="#CBC8D3"/>
<path transform="translate(1185,658)" d="m0 0" fill="#CBC8D3"/>
<path transform="translate(890,1147)" d="m0 0" fill="#CBC8D3"/>
<path transform="translate(885,1134)" d="m0 0" fill="#CBC8D3"/>
<path transform="translate(1369,1045)" d="m0 0" fill="#F6D7CD"/>
<path transform="translate(1350,1014)" d="m0 0" fill="#CBC8D3"/>
<path transform="translate(1367 1e3)" d="m0 0" fill="#CBC8D3"/>
<path transform="translate(690,925)" d="m0 0" fill="#CBC8D3"/>
<path transform="translate(1214,681)" d="m0 0" fill="#CBC8D3"/>
<path transform="translate(1136,623)" d="m0 0" fill="#CBC8D3"/>
</svg>
